<svg width="238" height="64" viewBox="0 0 238 64" fill="none" xmlns="http://www.w3.org/2000/svg">
<path fill-rule="evenodd" clip-rule="evenodd" d="M2.83718e-06 32.9235V3.83261H3.76524L21.6617 27.2439V3.83261H25.241V32.9235H21.4758L3.5793 9.28138V32.9235H2.83718e-06ZM54.3868 31.7691C52.0161 32.6465 49.4594 33.1082 46.7633 33.1082C36.1649 33.1082 30.8657 28.075 30.8657 17.9625C30.8657 8.40404 35.9789 3.60173 46.2055 3.60173C49.134 3.60173 51.8766 4.01732 54.3868 4.80231V8.03463C51.8766 7.06494 49.2735 6.60317 46.6239 6.60317C38.6285 6.60317 34.6309 10.3896 34.6309 17.8701C34.6309 25.9509 38.5821 29.9683 46.4379 29.9683C47.693 29.9683 49.0875 29.7835 50.6215 29.4603V19.7172H54.3868V31.7691ZM60.4297 21.7027V3.83261H64.195V21.7027C64.195 27.29 66.984 30.1068 72.6086 30.1068C78.1868 30.1068 81.0223 27.29 81.0223 21.7027V3.83261H84.7876V21.7027C84.7876 29.3218 80.7434 33.1544 72.6086 33.1544C64.4739 33.1544 60.4297 29.3218 60.4297 21.7027ZM95.293 3.83261V29.8759H110.633V32.9235H91.5278V3.83261H95.293ZM116.072 32.9235H112.12L126.67 0L141.22 32.9235H137.036L133.271 23.7807H123.602L124.625 20.733H132.016L126.531 7.57287L116.072 32.9235ZM145.264 32.9235V3.83261H157.768C163.346 3.83261 166.135 6.14141 166.135 10.8052C166.135 14.5916 163.393 17.4084 157.954 19.2092L167.995 32.9235H163.021L153.724 19.8557V17.4084C159.302 16.531 162.138 14.4069 162.138 10.9899C162.138 8.31169 160.604 6.97258 157.489 6.97258H149.122V32.9235H145.264Z" transform="translate(70.0059 14.5454)" fill="#C4C4C4"/>
<path fill-rule="evenodd" clip-rule="evenodd" d="M0 10.6205L29.9824 0L60.7551 10.4358L55.7813 49.824L29.9824 64L4.60196 50.0087L0 10.6205Z" fill="#C4C4C4"/>
<path fill-rule="evenodd" clip-rule="evenodd" d="M30.7727 10.4358L0 0V64L25.7988 49.824L30.7727 10.4358Z" transform="translate(29.9824)" fill="#C4C4C4"/>
<path fill-rule="evenodd" clip-rule="evenodd" d="M18.6867 3.52295e-07L-1.77324e-07 41.2814L6.97266 41.1429L10.7379 31.8153H27.4258L31.5164 41.2352L38.1637 41.3737L18.6867 3.52295e-07ZM18.7332 13.2525L25.0551 26.3665H13.2016L18.7332 13.2525Z" transform="translate(11.3418 7.48047)" fill="white"/>
</svg>
