<svg width="112" height="67" viewBox="0 0 112 67" fill="none" xmlns="http://www.w3.org/2000/svg">
<path d="M12.9845 26.4585C13.1017 26.0282 13.1799 25.5978 13.2971 25.1674C15.1336 17.4597 16.931 9.71288 18.7675 2.00517C18.8066 1.77042 18.9238 1.53567 19.0019 1.26179C19.2364 0.518413 19.7443 0.205406 20.4868 0.127155C21.0338 0.0489043 21.5808 0.0880333 22.1669 0.0880333C22.9484 0.0880333 23.7299 0.0489043 24.5114 0.127155C25.2538 0.166281 25.7227 0.557538 25.9962 1.26179C26.2307 1.96605 26.387 2.70943 26.5433 3.41369C28.1062 10.1041 29.7083 16.7946 31.2712 23.485C31.5448 24.5805 31.7792 25.676 32.0527 26.8889C32.1699 26.4585 32.2481 26.1455 32.3653 25.7934C34.3972 17.8901 36.4681 9.94763 38.5 2.0443C38.5781 1.7313 38.6954 1.41829 38.8517 1.10529C39.1252 0.479284 39.5941 0.205406 40.2193 0.127155C40.9617 0.0489043 41.7041 0.0880333 42.4465 0.0880333C42.9935 0.0880333 43.5015 0.0880333 44.0485 0.0880333C44.9082 0.0880333 45.2208 0.479286 45.1035 1.34004C44.9863 2.12255 44.6737 2.86593 44.4393 3.64844C41.5478 12.9212 38.6563 22.1939 35.8039 31.4275C35.7257 31.6622 35.6476 31.8578 35.5694 32.0535C35.2959 32.7969 34.7098 33.1099 33.9674 33.149C32.6389 33.1881 31.2712 33.1881 29.9427 33.149C29.2003 33.1099 28.6533 32.7186 28.4188 32.0143C28.1453 31.2318 27.989 30.4102 27.7936 29.6277C25.9962 22.1939 24.2379 14.7992 22.4405 7.2871C22.3232 7.75661 22.2451 8.14786 22.1279 8.49999C20.3305 16.0903 18.494 23.6415 16.6966 31.2318C16.6184 31.5448 16.5403 31.8579 16.384 32.1317C16.1495 32.7186 15.6806 32.9925 15.0945 33.0707C14.5475 33.149 14.0004 33.1099 13.4143 33.1099C12.5156 33.1099 11.656 33.149 10.7573 33.0707C10.1321 33.0316 9.70226 32.7186 9.42873 32.1708C9.03799 31.3883 8.84262 30.5276 8.60817 29.706C5.8339 20.668 3.09871 11.5909 0.363509 2.51381C0.207212 2.0443 0.0899919 1.57479 0.0118434 1.10529C-0.0663051 0.479284 0.246285 0.0489091 0.832399 0.00978374C2.23907 0.00978374 3.64575 -0.0293452 5.05242 0.0489055C5.71668 0.0880309 6.1465 0.401034 6.42002 1.02704C6.77169 1.84867 6.92799 2.70943 7.16243 3.57019C9.07707 11.1605 10.9917 18.7117 12.9454 26.302C12.9454 26.3412 12.9454 26.3803 12.9845 26.3803C12.9454 26.4585 12.9454 26.4585 12.9845 26.4585Z" transform="translate(35.1143 0.868408)" fill="#C4C4C4"/>
<path d="M54.9751 23.0106C52.5525 22.9715 49.9736 22.8541 47.3556 22.5802C41.4164 21.9934 35.6334 20.7805 29.9285 18.9416C24.0283 17.0244 18.4407 14.4813 13.1657 11.273C8.63306 8.53423 4.41303 5.4042 0.505608 1.88291C0.388386 1.80466 0.310238 1.68728 0.23209 1.5699C-0.0414299 1.17865 -0.080503 0.709143 0.153943 0.39614C0.388388 0.0440113 0.818202 -0.0733625 1.28709 0.0440137C1.56061 0.122264 1.79506 0.278764 2.02951 0.39614C6.52305 2.97842 11.1729 5.20857 15.979 7.12571C20.3944 8.88635 24.927 10.334 29.5378 11.5078C33.0154 12.3685 36.493 13.1119 40.0097 13.6597C42.5886 14.0509 45.2066 14.3639 47.8245 14.5987C51.2631 14.8725 54.7407 15.029 58.1792 14.9899C61.1098 14.9508 64.0404 14.7943 66.9318 14.5204C70.722 14.1683 74.4732 13.6205 78.1852 12.838C85.453 11.3904 92.4864 9.23848 99.3244 6.3432C99.8714 6.10845 100.418 6.0302 100.966 6.22583C102.021 6.57796 102.372 7.75171 101.708 8.6516C101.513 8.88635 101.317 9.08198 101.083 9.23848C97.7224 11.7034 94.0884 13.777 90.2982 15.4985C84.8669 18.0026 79.2012 19.8023 73.34 21.0935C70.5658 21.6804 67.7524 22.1499 64.9391 22.4629C61.5005 22.8541 58.3746 23.0106 54.9751 23.0106Z" transform="translate(0 43.9894)" fill="#C4C4C4"/>
<path d="M21.158 29.6588C20.9627 29.8544 20.8064 30.05 20.6501 30.2065C18.6182 32.3976 16.1956 33.8843 13.265 34.4712C10.7252 34.9798 8.18538 34.9798 5.7237 34.0017C2.71498 32.7888 0.878489 30.5587 0.253301 27.3895C-0.137441 25.4332 -0.0983623 23.5161 0.526826 21.5989C1.26924 19.2514 2.79313 17.5299 4.82499 16.2779C6.46611 15.2998 8.22445 14.752 10.1391 14.5173C12.8352 14.2043 15.4923 14.439 18.1493 14.9476C18.9699 15.1041 19.7514 15.2606 20.5719 15.4563C20.7282 15.4954 20.8064 15.4954 20.7673 15.2998C20.7282 13.7739 20.8454 12.248 20.6501 10.7221C20.5328 9.93958 20.3765 9.15708 20.064 8.41369C19.3997 6.7313 18.0712 5.90967 16.391 5.47929C14.8671 5.08804 13.3041 5.04891 11.7411 5.16629C9.27946 5.36191 6.935 6.06617 4.66869 6.96606C4.23888 7.16168 3.76999 7.31818 3.30109 7.43556C2.75405 7.55294 2.36332 7.31818 2.28517 6.77043C2.20702 5.75317 2.20702 4.73591 2.28517 3.75778C2.32424 3.17089 2.75406 2.85789 3.22295 2.58401C3.96536 2.15363 4.74684 1.84063 5.5674 1.52762C8.81057 0.353862 12.1319 -0.154763 15.6095 0.0408634C17.5241 0.15824 19.3606 0.471239 21.119 1.25375C23.6979 2.38838 25.2999 4.30553 26.1595 6.96606C26.6675 8.49195 26.8629 10.0178 26.9019 11.622C26.941 15.6519 26.9019 19.6818 26.9019 23.7117C26.9019 26.0592 27.3708 28.2503 28.5821 30.3239C29.0901 31.1455 28.9338 31.7715 28.1132 32.3193C27.3318 32.8671 26.5112 33.4148 25.7297 33.9234C24.9873 34.393 24.2449 34.2756 23.6197 33.6104C22.721 32.6323 22.0567 31.4977 21.4706 30.2848C21.3534 30.0109 21.2752 29.8544 21.158 29.6588ZM13.773 18.821C13.0697 18.7819 11.7411 18.8602 10.4517 19.2514C8.77149 19.7601 7.48204 20.6991 6.85685 22.3815C6.46611 23.477 6.42704 24.5725 6.54426 25.7071C6.7787 27.7808 8.06815 29.3067 10.0609 29.7762C11.1941 30.05 12.3663 30.0109 13.4995 29.8153C14.9843 29.5805 16.43 29.1501 17.6413 28.2111C19.048 27.1939 20.103 25.9027 20.4547 24.1421C20.7282 22.7336 20.7282 21.3251 20.7282 19.8774C20.7282 19.7209 20.6501 19.6818 20.5328 19.6818C18.5791 19.1341 16.5082 18.8602 13.773 18.821Z" transform="translate(4.62891 0.0548096)" fill="#C4C4C4"/>
<path d="M12.6112 0.0173867C15.3073 0.0173867 17.8862 0.447768 20.387 1.4259C20.895 1.62153 21.4029 1.89541 21.8327 2.24754C22.3016 2.63879 22.5751 3.14742 22.5751 3.77343C22.5751 4.47768 22.5751 5.18194 22.5751 5.88619C22.5361 6.70783 22.1063 7.02083 21.2857 6.82521C20.934 6.74696 20.6214 6.59045 20.2698 6.43395C17.6518 5.26019 14.8775 4.86894 12.0642 5.02544C10.9701 5.10369 9.91509 5.26019 8.93823 5.65145C6.711 6.59046 5.8123 9.05535 6.90638 11.0899C7.3362 11.9115 8.03953 12.4201 8.86009 12.8505C10.0714 13.5156 11.3608 13.9069 12.6503 14.3373C14.5649 14.9633 16.4796 15.4719 18.3551 16.2153C19.7227 16.7631 20.9731 17.4282 22.0281 18.4846C23.552 19.9713 24.3335 21.8102 24.4507 23.923C24.5679 25.5271 24.3335 27.0922 23.6692 28.5398C22.6533 30.7308 20.9731 32.335 18.824 33.3913C16.9875 34.2912 15.0338 34.7999 13.002 34.9172C9.2899 35.1911 5.73414 34.6042 2.29561 33.274C1.74857 33.0783 1.27968 32.8045 0.810793 32.4523C0.263754 32.0611 0.0293081 31.5524 0.0293081 30.8873C-0.00976618 30.1439 -0.00976618 29.4397 0.0293081 28.6963C0.0293081 27.8355 0.498197 27.4834 1.35783 27.7182C1.78765 27.8355 2.21746 28.0312 2.64728 28.2268C5.57785 29.4788 8.62565 29.9874 11.7907 29.9092C13.1973 29.8701 14.604 29.6353 15.8544 29.0093C17.1048 28.3833 17.9644 27.4834 18.277 26.0749C18.6677 24.2751 17.9644 22.671 16.3233 21.7711C15.2683 21.1451 14.096 20.793 12.9238 20.4017C10.9701 19.7757 8.97731 19.2671 7.06267 18.5237C5.34341 17.8977 3.78044 16.9978 2.60821 15.5893C0.263756 12.7331 -0.322365 9.56398 1.12338 6.16008C1.98302 4.12556 3.58507 2.67792 5.4997 1.62153C7.29712 0.643395 9.25083 0.134763 11.3218 0.0173867C11.6734 -0.0217387 12.1423 0.0173867 12.6112 0.0173867Z" transform="translate(82.8848)" fill="#C4C4C4"/>
<path d="M9.76422 4.35514C7.18532 4.35514 4.6455 4.62901 2.10567 4.94202C1.67586 4.98114 1.24603 5.05939 0.816215 5.05939C0.542696 5.09851 0.230104 5.02027 0.0738069 4.74639C-0.0824901 4.43339 0.0347279 4.19863 0.191025 3.92475C0.347322 3.69 0.58177 3.49438 0.816215 3.33787C2.69178 2.04674 4.76272 1.26422 6.95088 0.716468C9.52978 0.0904618 12.1478 -0.105158 14.8048 0.0513436C16.2896 0.129594 17.7354 0.325219 19.1811 0.794724C20.5878 1.26423 20.9395 1.69461 20.9785 3.18137C21.0567 4.66814 20.8222 6.11577 20.5487 7.56341C19.8845 10.7326 18.7513 13.667 16.993 16.4058C16.0942 17.8143 15.0392 19.0663 13.7889 20.1227C13.4763 20.3965 13.2028 20.6313 12.7729 20.6704C12.2259 20.7487 11.9133 20.3965 12.0305 19.8879C12.1087 19.5358 12.265 19.2619 12.3822 18.9489C13.4372 16.2884 14.4531 13.6278 15.1955 10.8499C15.4691 9.75443 15.7035 8.69805 15.7817 7.56341C15.8207 7.17216 15.7817 6.7809 15.7035 6.38965C15.5863 5.72452 15.2346 5.29414 14.6094 5.02026C13.8279 4.66813 13.0074 4.55076 12.1868 4.47251C11.3663 4.39426 10.5848 4.35514 9.76422 4.35514Z" transform="translate(91.0068 41.752)" fill="#C4C4C4"/>
</svg>
