<svg xmlns="http://www.w3.org/2000/svg" width="295" height="106" fill="none">
  <path fill="#528FA8" d="M116.167 86.939v3.504H115v-8.951h3.265c.968 0 1.726.25 2.274.75.551.5.826 1.162.826 1.986 0 .868-.269 1.538-.808 2.01-.535.467-1.303.7-2.304.7h-2.086zm0-.966h2.098c.624 0 1.102-.147 1.435-.442.332-.3.498-.73.498-1.291 0-.533-.166-.96-.498-1.279-.333-.32-.789-.486-1.368-.498h-2.165v3.51zm10.573 3.812c-.438.52-1.08.78-1.927.78-.702 0-1.237-.204-1.605-.614-.365-.414-.55-1.025-.554-1.832V83.79h1.125v4.297c0 1.008.405 1.512 1.216 1.512.859 0 1.431-.323 1.714-.97V83.79h1.125v6.652h-1.07l-.024-.658zm5.988-4.974a3.324 3.324 0 0 0-.553-.043c-.738 0-1.238.318-1.502.953v4.722h-1.124V83.79h1.094l.018.768c.369-.594.892-.891 1.569-.891.219 0 .385.029.498.086v1.057zm6.597 2.38c0 1.012-.229 1.827-.687 2.446-.458.62-1.078.929-1.861.929-.798 0-1.426-.257-1.884-.769V93h-1.125v-9.209h1.027l.055.738c.458-.574 1.094-.861 1.909-.861.79 0 1.415.301 1.873.904.462.602.693 1.44.693 2.514v.105zm-1.125-.13c0-.75-.158-1.342-.474-1.776-.316-.435-.75-.652-1.301-.652-.681 0-1.192.306-1.532.916v3.178c.336.607.851.91 1.544.91a1.51 1.51 0 0 0 1.283-.645c.32-.435.48-1.078.48-1.93zm2.261-.006c0-.651.126-1.237.377-1.758.256-.52.608-.922 1.058-1.205a2.872 2.872 0 0 1 1.551-.424c.895 0 1.619.314 2.17.94.555.628.833 1.462.833 2.503v.08c0 .647-.124 1.23-.371 1.745a2.79 2.79 0 0 1-1.052 1.2c-.454.286-.976.43-1.568.43-.892 0-1.615-.314-2.171-.941-.551-.627-.827-1.457-.827-2.49v-.08zm1.131.136c0 .737.169 1.33.505 1.776.34.447.794.67 1.362.67.571 0 1.025-.225 1.362-.676.336-.455.504-1.09.504-1.906 0-.73-.172-1.32-.517-1.77a1.615 1.615 0 0 0-1.361-.682c-.556 0-1.003.223-1.344.67-.34.446-.511 1.086-.511 1.918zm10.099 1.487c0-.307-.116-.545-.347-.713-.227-.172-.626-.32-1.198-.443-.567-.122-1.019-.27-1.355-.442-.333-.172-.58-.377-.742-.615a1.497 1.497 0 0 1-.237-.848c0-.545.227-1.006.681-1.383.458-.377 1.041-.566 1.751-.566.745 0 1.349.195 1.811.584.466.39.7.887.7 1.494h-1.131c0-.312-.132-.58-.395-.805-.26-.226-.588-.338-.985-.338-.41 0-.73.09-.961.27a.854.854 0 0 0-.346.707c0 .275.107.481.322.62.215.14.602.273 1.161.4.563.127 1.019.28 1.368.455.348.177.606.39.772.64.17.246.255.547.255.903 0 .595-.235 1.072-.705 1.433-.47.356-1.08.535-1.83.535-.527 0-.993-.095-1.398-.283a2.314 2.314 0 0 1-.955-.787 1.944 1.944 0 0 1-.34-1.1h1.125c.02.38.17.684.449.91.284.22.657.331 1.119.331.426 0 .766-.086 1.021-.258.26-.176.39-.41.39-.7zm5.319 1.888c-.891 0-1.617-.296-2.176-.886-.56-.594-.839-1.387-.839-2.379v-.209c0-.66.124-1.248.371-1.764.251-.52.599-.926 1.045-1.217.45-.295.937-.443 1.46-.443.855 0 1.519.285 1.993.854.475.57.712 1.386.712 2.447v.474h-4.456c.016.655.204 1.186.565 1.592.365.401.827.602 1.386.602.397 0 .734-.082 1.009-.246.276-.163.517-.38.724-.651l.687.54c-.551.857-1.378 1.286-2.481 1.286zm-.139-5.963c-.454 0-.836.168-1.143.504-.309.332-.499.799-.572 1.401h3.295v-.086c-.032-.578-.186-1.025-.462-1.34-.275-.32-.648-.48-1.118-.48zm6.827 2.459c0-1.021.239-1.84.717-2.46.479-.623 1.105-.934 1.879-.934.77 0 1.38.266 1.83.8V81h1.125v9.443h-1.034l-.055-.713c-.45.557-1.076.836-1.878.836-.762 0-1.384-.316-1.867-.947-.478-.631-.717-1.455-.717-2.472v-.086zm1.125.129c0 .754.154 1.344.462 1.77.308.426.733.64 1.276.64.714 0 1.235-.324 1.563-.972v-3.055c-.336-.627-.853-.94-1.55-.94-.552 0-.981.214-1.289.645-.308.43-.462 1.067-.462 1.912zm9.356-2.38a3.324 3.324 0 0 0-.553-.043c-.738 0-1.238.318-1.502.953v4.722H171V83.79h1.094l.018.768c.369-.594.892-.891 1.569-.891.218 0 .385.029.498.086v1.057zm2.262 5.632h-1.125V83.79h1.125v6.652zm-1.216-8.416c0-.185.055-.34.164-.468.114-.127.28-.19.499-.19.218 0 .385.063.498.19.114.127.17.283.17.468a.651.651 0 0 1-.17.46c-.113.124-.28.185-.498.185-.219 0-.385-.061-.499-.184a.67.67 0 0 1-.164-.461zm5.192 6.873l1.629-5.109h1.149l-2.358 6.652h-.858l-2.383-6.652h1.149l1.672 5.109zm6.505 1.666c-.892 0-1.617-.296-2.176-.886-.56-.594-.839-1.387-.839-2.379v-.209c0-.66.123-1.248.37-1.764.252-.52.6-.926 1.046-1.217.45-.295.937-.443 1.459-.443.855 0 1.52.285 1.994.854.475.57.712 1.386.712 2.447v.474h-4.456c.016.655.204 1.186.565 1.592.364.401.827.602 1.386.602.397 0 .734-.082 1.009-.246.276-.163.517-.38.724-.651l.687.54c-.552.857-1.378 1.286-2.481 1.286zm-.14-5.963a1.49 1.49 0 0 0-1.143.504c-.308.332-.498.799-.571 1.401h3.295v-.086c-.032-.578-.187-1.025-.462-1.34-.275-.32-.648-.48-1.119-.48zm5.077-.812l.036.836c.503-.64 1.159-.959 1.97-.959 1.39 0 2.092.793 2.104 2.38v4.395h-1.125V86.04c-.004-.48-.114-.834-.328-1.063-.211-.23-.541-.345-.991-.345-.365 0-.685.099-.961.295-.276.197-.49.455-.644.775v4.74h-1.125V83.79h1.064zm5.83 6.055c0-.196.057-.36.171-.492.117-.13.291-.196.522-.196.231 0 .406.065.523.197a.694.694 0 0 1 .183.491.657.657 0 0 1-.183.474c-.117.127-.292.19-.523.19-.231 0-.405-.063-.522-.19a.683.683 0 0 1-.171-.474zm9.454-.971l2.529-7.383h1.277l-3.283 8.95h-1.034l-3.277-8.95h1.271l2.517 7.383zm8.603 1.568c-.065-.132-.118-.365-.158-.701-.523.549-1.147.824-1.873.824-.648 0-1.181-.185-1.599-.554a1.823 1.823 0 0 1-.62-1.414c0-.692.26-1.23.778-1.61.523-.385 1.257-.578 2.201-.578h1.094v-.523c0-.397-.117-.713-.352-.946-.235-.238-.582-.357-1.04-.357-.401 0-.737.102-1.009.307-.272.205-.407.453-.407.744h-1.131c0-.332.115-.651.346-.959.236-.311.552-.557.949-.737a3.18 3.18 0 0 1 1.319-.271c.758 0 1.352.193 1.781.578.43.381.653.908.669 1.58v3.061c0 .61.077 1.097.231 1.457v.099h-1.179zm-1.867-.867c.353 0 .687-.092 1.004-.277.316-.184.545-.424.686-.72v-1.364h-.881c-1.378 0-2.067.408-2.067 1.224 0 .356.117.635.352.836.235.2.538.3.906.3zm5.8.867h-1.124V81h1.124v9.443zm5.867-.658c-.437.52-1.08.78-1.927.78-.701 0-1.236-.204-1.605-.614-.365-.414-.549-1.025-.553-1.832V83.79h1.124v4.297c0 1.008.406 1.512 1.216 1.512.86 0 1.431-.323 1.715-.97V83.79h1.125v6.652h-1.07l-.025-.658zm5.539.78c-.892 0-1.618-.294-2.177-.885-.559-.594-.839-1.387-.839-2.379v-.209c0-.66.124-1.248.371-1.764.251-.52.6-.926 1.046-1.217a2.61 2.61 0 0 1 1.459-.443c.855 0 1.52.285 1.994.854.474.57.711 1.386.711 2.447v.474h-4.456c.016.655.205 1.186.565 1.592.365.401.827.602 1.387.602.397 0 .733-.082 1.009-.246.275-.163.517-.38.723-.651l.687.54c-.551.857-1.378 1.286-2.48 1.286zm-.14-5.962c-.454 0-.835.168-1.143.504-.308.332-.499.799-.572 1.401h3.296v-.086c-.033-.578-.187-1.025-.462-1.34-.276-.32-.649-.48-1.119-.48zm8.159-.812l.03.738c.482-.574 1.133-.861 1.952-.861.92 0 1.546.357 1.878 1.07a2.51 2.51 0 0 1 .852-.775c.352-.197.768-.295 1.246-.295 1.443 0 2.176.773 2.201 2.318v4.457h-1.125v-4.39c0-.475-.107-.83-.322-1.063-.215-.238-.576-.357-1.082-.357-.418 0-.765.127-1.04.381-.276.25-.436.589-.48 1.015v4.414h-1.131v-4.359c0-.967-.468-1.45-1.405-1.45-.737 0-1.242.317-1.513.952v4.857h-1.125V83.79h1.064zm9.563 3.264c0-.651.126-1.237.377-1.758a2.88 2.88 0 0 1 1.058-1.205c.454-.283.97-.424 1.55-.424.896 0 1.619.314 2.171.94.555.628.833 1.462.833 2.503v.08c0 .647-.124 1.23-.371 1.745a2.79 2.79 0 0 1-1.052 1.2c-.454.286-.977.43-1.569.43-.891 0-1.615-.314-2.17-.941-.551-.627-.827-1.457-.827-2.49v-.08zm1.131.136c0 .737.168 1.33.504 1.776.341.447.795.67 1.362.67.572 0 1.026-.225 1.362-.676.336-.455.505-1.09.505-1.906 0-.73-.172-1.32-.517-1.77a1.617 1.617 0 0 0-1.362-.682c-.555 0-1.003.223-1.343.67-.341.446-.511 1.086-.511 1.918zm7.794-5.01v1.61h1.228v.88h-1.228v4.124c0 .266.055.467.164.602.11.132.296.197.559.197a2.7 2.7 0 0 0 .536-.073v.922a3.23 3.23 0 0 1-.864.123c-.502 0-.881-.154-1.137-.462-.255-.307-.383-.743-.383-1.309V84.67h-1.197v-.879h1.197v-1.61h1.125zm3.769 8.262h-1.124V83.79h1.124v6.652zm-1.216-8.416c0-.185.055-.34.165-.468.113-.127.279-.19.498-.19.219 0 .385.063.499.19.113.127.17.283.17.468a.656.656 0 0 1-.17.46c-.114.124-.28.185-.499.185-.219 0-.385-.061-.498-.184a.666.666 0 0 1-.165-.461zm5.192 6.873l1.63-5.109h1.149l-2.359 6.652h-.857l-2.384-6.652h1.149l1.672 5.109zm7.825 1.543c-.065-.132-.118-.365-.158-.701-.523.549-1.147.824-1.873.824-.648 0-1.181-.185-1.599-.554a1.823 1.823 0 0 1-.62-1.414c0-.692.26-1.23.779-1.61.522-.385 1.256-.578 2.2-.578h1.095v-.523c0-.397-.118-.713-.353-.946-.235-.238-.582-.357-1.04-.357-.401 0-.737.102-1.009.307-.271.205-.407.453-.407.744h-1.131c0-.332.116-.651.346-.959.235-.311.552-.557.949-.737a3.18 3.18 0 0 1 1.319-.271c.758 0 1.352.193 1.782.578.429.381.652.908.668 1.58v3.061c0 .61.077 1.097.231 1.457v.099h-1.179zm-1.867-.867c.353 0 .688-.092 1.004-.277.316-.184.545-.424.687-.72v-1.364h-.882c-1.378 0-2.067.408-2.067 1.224 0 .356.118.635.353.836.235.2.537.3.905.3zm6.104-7.396v1.611h1.229v.88h-1.229v4.124c0 .266.055.467.165.602.109.132.295.197.559.197a2.7 2.7 0 0 0 .535-.073v.922a3.228 3.228 0 0 1-.863.123c-.503 0-.882-.154-1.137-.462-.256-.307-.383-.743-.383-1.309V84.67h-1.198v-.879h1.198v-1.61h1.124zm5.278 8.386c-.892 0-1.618-.296-2.177-.886-.559-.594-.839-1.387-.839-2.379v-.209c0-.66.124-1.248.371-1.764.251-.52.6-.926 1.046-1.217a2.61 2.61 0 0 1 1.459-.443c.855 0 1.52.285 1.994.854.474.57.711 1.386.711 2.447v.474h-4.456c.016.655.204 1.186.565 1.592.365.401.827.602 1.386.602.398 0 .734-.082 1.01-.246.275-.163.516-.38.723-.651l.687.54c-.551.857-1.378 1.286-2.48 1.286zm-.14-5.963c-.454 0-.835.168-1.143.504-.308.332-.499.799-.572 1.401h3.295v-.086c-.032-.578-.186-1.025-.462-1.34-.275-.32-.648-.48-1.118-.48zm3.739 2.459c0-1.021.239-1.84.717-2.46.478-.623 1.105-.934 1.879-.934.77 0 1.38.266 1.83.8V81h1.125v9.443h-1.034l-.055-.713c-.45.557-1.076.836-1.878.836-.762 0-1.385-.316-1.867-.947-.478-.631-.717-1.455-.717-2.472v-.086zm1.124.129c0 .754.155 1.344.462 1.77.309.426.734.64 1.277.64.714 0 1.234-.324 1.563-.972v-3.055c-.337-.627-.853-.94-1.551-.94-.551 0-.98.214-1.289.645-.307.43-.462 1.067-.462 1.912zm6.202 2.655c0-.196.056-.36.17-.492.118-.13.292-.196.523-.196.231 0 .405.065.523.197a.698.698 0 0 1 .182.491.66.66 0 0 1-.182.474c-.118.127-.292.19-.523.19-.231 0-.405-.063-.523-.19a.682.682 0 0 1-.17-.474z"/>
  <path fill="#022C46" d="M115.854 75.044c-.526-.528-.789-1.48-.789-2.852V54.519c0-1.4.256-2.424.766-3.067.513-.643 1.579-.965 3.199-.965h4.692c2.587 0 4.684.572 6.29 1.716 1.606 1.144 2.409 2.674 2.409 4.59 0 1.258-.199 2.359-.597 3.302-.399.945-1.194 1.717-2.389 2.317v.086c1.478.486 2.545 1.165 3.199 2.038.654.872.981 2.094.981 3.667 0 2.316-.768 4.169-2.303 5.554-1.534 1.388-3.767 2.082-6.696 2.082h-5.67c-1.536 0-2.567-.265-3.092-.795zm7.398-14.649c1.28 0 2.161-.192 2.644-.579.483-.385.726-1.037.726-1.951 0-1.63-1.124-2.446-3.37-2.446h-2.472v4.976h2.472zm.384 10.467c1.478 0 2.501-.243 3.07-.73.569-.485.853-1.186.853-2.1 0-1.145-.284-1.953-.853-2.425-.569-.472-1.62-.708-3.155-.708h-2.772v5.963h2.857zM154.382 53.189c0 1.774-1.365 2.66-4.094 2.66h-4.69v4.546h4.051c2.7 0 4.051.886 4.051 2.66 0 1.773-1.351 2.66-4.051 2.66h-4.051v4.761h4.861c2.729 0 4.093.9 4.093 2.703 0 1.772-1.364 2.66-4.093 2.66h-6.695c-1.536 0-2.567-.265-3.092-.795-.527-.529-.789-1.48-.789-2.852V54.519c0-1.4.255-2.424.767-3.067.512-.643 1.578-.966 3.199-.966h6.439c2.729 0 4.094.902 4.094 2.703zM173.614 53.189c0 1.774-1.365 2.66-4.094 2.66h-4.691v4.546h4.052c2.699 0 4.05.886 4.05 2.66 0 1.773-1.351 2.66-4.05 2.66h-4.052v4.761h4.861c2.729 0 4.093.9 4.093 2.703 0 1.772-1.364 2.66-4.093 2.66h-6.694c-1.536 0-2.567-.265-3.093-.795-.526-.529-.789-1.48-.789-2.852V54.519c0-1.4.256-2.424.768-3.067.512-.643 1.578-.966 3.198-.966h6.44c2.729 0 4.094.902 4.094 2.703zM192.633 67.816l3.325-14.242c.227-1 .705-1.822 1.43-2.465.724-.645 1.612-.966 2.665-.966 1.25 0 2.274.4 3.07 1.201.795.8 1.279 1.73 1.45 2.788l2.772 17.287c.056.487.098.88.128 1.18.027.3.042.55.042.751 0 1-.221 1.715-.661 2.145-.441.427-1.074.643-1.898.643-.881 0-1.549-.266-2.004-.794-.456-.529-.783-1.494-.981-2.896l-2.174-13.898h-.086l-3.241 12.826c-.426 1.687-.959 2.788-1.6 3.304-.639.514-1.4.77-2.281.77-.91 0-1.685-.256-2.324-.77-.639-.516-1.173-1.617-1.599-3.304l-3.283-12.825h-.043l-2.175 13.898c-.227 1.402-.554 2.367-.98 2.896-.427.528-1.095.793-2.005.793-.796 0-1.428-.215-1.897-.642-.47-.43-.704-1.144-.704-2.145 0-.344.086-.988.256-1.931l2.772-17.288c.141-1.057.611-1.986 1.407-2.787.795-.801 1.805-1.202 3.027-1.202 1.081 0 1.984.322 2.709.966.724.643 1.2 1.465 1.429 2.466l3.325 14.242h.129zM229.412 71.206a7.431 7.431 0 0 1-1.897 2.595c-.825.729-1.828 1.3-3.007 1.716-1.18.414-2.494.621-3.945.621-1.137 0-2.196-.106-3.176-.321-.981-.214-1.827-.508-2.538-.88-.711-.371-1.266-.793-1.662-1.265-.4-.472-.598-.966-.598-1.48 0-.715.248-1.31.746-1.78.497-.473 1.173-.709 2.026-.709.738 0 1.612.202 2.622.601 1.009.4 2.125.6 3.348.6.795 0 1.464-.235 2.005-.707.539-.472.81-1.066.81-1.78 0-1-.385-1.723-1.152-2.167-.768-.442-1.819-.863-3.155-1.264-2.361-.715-4.109-1.58-5.245-2.596-1.138-1.014-1.706-2.48-1.706-4.396 0-1.116.212-2.152.639-3.11a7.428 7.428 0 0 1 1.792-2.489c.766-.7 1.697-1.25 2.792-1.651 1.095-.4 2.325-.601 3.689-.601 2.019 0 3.646.365 4.882 1.094 1.237.729 1.855 1.58 1.855 2.553 0 .743-.22 1.33-.66 1.758-.442.43-1.074.644-1.897.644-.684 0-1.401-.15-2.154-.45-.754-.3-1.486-.452-2.198-.452-.88 0-1.555.202-2.024.601a1.942 1.942 0 0 0-.704 1.544c0 .887.384 1.48 1.152 1.78.767.3 1.847.68 3.241 1.137 2.273.772 3.972 1.753 5.096 2.94 1.122 1.186 1.684 2.722 1.684 4.61 0 1.201-.221 2.303-.661 3.304zM234.081 53.189c0-1.8 1.365-2.703 4.093-2.703h9.98c2.729 0 4.093.902 4.093 2.703 0 1.774-1.364 2.66-4.093 2.66h-2.133v16.214c0 2.718-.953 4.075-2.857 4.075-1.905 0-2.858-1.357-2.858-4.075V55.85h-2.132c-2.728 0-4.093-.886-4.093-2.66zM272.801 53.189c0 1.774-1.364 2.66-4.093 2.66h-4.692v4.546h4.052c2.7 0 4.051.886 4.051 2.66 0 1.773-1.351 2.66-4.051 2.66h-4.052v4.761h4.862c2.73 0 4.094.9 4.094 2.703 0 1.772-1.364 2.66-4.094 2.66h-6.696c-1.534 0-2.565-.265-3.09-.795-.528-.529-.789-1.48-.789-2.852V54.519c0-1.4.256-2.424.766-3.067.512-.643 1.579-.966 3.199-.966h6.44c2.729 0 4.093.902 4.093 2.703zM279.454 76.138c-1.905 0-2.858-1.357-2.858-4.075V54.52c0-1.4.256-2.424.768-3.067.512-.643 1.578-.966 3.198-.966h4.436c3.127 0 5.507.729 7.142 2.188 1.635 1.459 2.452 3.361 2.452 5.706 0 1.83-.519 3.353-1.556 4.568-1.038 1.215-2.509 1.98-4.415 2.295l4.521 5.061c1.109 1.287 1.663 2.389 1.663 3.304 0 .744-.256 1.38-.767 1.909-.511.529-1.166.794-1.962.794-.569 0-1.087-.181-1.556-.537-.469-.359-.975-.851-1.514-1.48l-6.695-8.494v6.263c0 2.718-.953 4.075-2.857 4.075zm8.23-14.992c.625-.558.937-1.336.937-2.337 0-.944-.304-1.68-.916-2.21-.611-.529-1.499-.794-2.665-.794h-2.729v6.177h2.643c1.194 0 2.104-.28 2.73-.836z"/>
  <path fill="#528FA8" d="M87.088 98.62c-7.337 5.703-16.433 8.231-25.652 7.126-9.326-1.117-17.662-5.821-23.47-13.245a35.196 35.196 0 0 1-6.515-13.386 1.347 1.347 0 0 1 .982-1.63 1.338 1.338 0 0 1 1.62.985 32.492 32.492 0 0 0 6.017 12.364c5.366 6.859 13.067 11.205 21.683 12.237 8.515 1.021 16.92-1.316 23.696-6.584l.238-.186c6.818-5.398 11.138-13.144 12.165-21.81 1.027-8.668-1.364-17.218-6.731-24.077-7.682-9.817-20.483-14.405-32.612-11.688a1.339 1.339 0 0 1-1.598-1.022 1.348 1.348 0 0 1 1.016-1.608c13.128-2.94 26.985 2.024 35.3 12.65 5.808 7.425 8.395 16.681 7.284 26.062-1.111 9.381-5.787 17.767-13.168 23.61l-.255.202z"/>
  <path fill="#528FA8" d="M65.763 86.552c8.817 0 15.964-7.19 15.964-16.058 0-8.869-7.147-16.058-15.964-16.058-8.816 0-15.963 7.19-15.963 16.058 0 8.868 7.147 16.058 15.963 16.058z"/>
  <path fill="#2F3530" d="M22.54 21.238c3.665 0 6.636-2.99 6.636-6.677 0-3.687-2.971-6.676-6.637-6.676-3.666 0-6.637 2.989-6.637 6.676 0 3.688 2.971 6.677 6.637 6.677z" opacity=".5"/>
  <path fill="#2F3530" d="M22.54 21.238c3.665 0 6.636-2.99 6.636-6.677 0-3.687-2.971-6.676-6.637-6.676-3.666 0-6.637 2.989-6.637 6.676 0 3.688 2.971 6.677 6.637 6.677z" opacity=".5"/>
  <path fill="#528FA8" d="M22.54 21.238c3.665 0 6.636-2.99 6.636-6.677 0-3.687-2.971-6.676-6.637-6.676-3.666 0-6.637 2.989-6.637 6.676 0 3.688 2.971 6.677 6.637 6.677z"/>
  <path fill="#2F3530" d="M9.257 59.813a4.915 4.915 0 0 0-.876 6.868 4.85 4.85 0 0 0 6.828.881 4.917 4.917 0 0 0 .876-6.868 4.847 4.847 0 0 0-6.828-.88z" opacity=".5"/>
  <path fill="#2F3530" d="M9.257 59.813a4.915 4.915 0 0 0-.876 6.868 4.85 4.85 0 0 0 6.828.881 4.917 4.917 0 0 0 .876-6.868 4.847 4.847 0 0 0-6.828-.88z" opacity=".5"/>
  <path fill="#528FA8" d="M9.257 59.813a4.915 4.915 0 0 0-.876 6.868 4.85 4.85 0 0 0 6.828.881 4.917 4.917 0 0 0 .876-6.868 4.847 4.847 0 0 0-6.828-.88z"/>
  <path fill="#022C46" d="M56.388 41.234a23.13 23.13 0 0 1-.64.058c-2.654.201-5.29-.32-7.7-1.453a22.141 22.141 0 0 1-4.041-2.486c-1.81-1.395-3.416-3.094-4.807-4.906-2.528-3.292-3.831-7.425-3.24-11.567.447-3.122 1.418-5.849.804-9.049a14.686 14.686 0 0 0-2.77-6.172C29.107-.705 20.015-1.878 13.69 3.04 7.362 7.958 6.196 17.1 11.084 23.465a14.572 14.572 0 0 0 5.231 4.248c1.466.706 3.052.991 4.65 1.204 2.191.292 4.335-.018 6.488.64a15.696 15.696 0 0 1 5.62 3.119c.899.776 1.74 1.674 2.466 2.617 8.26 10.753 3.773 20.031 3.773 20.031l.022-.018c-.412.718-.792 1.45-1.142 2.193-.018.012-.052.07-.111.2-.98 2.212-4.764 6.317-9.285 5.737-1.497-.191-3.317-1.646-4.23-2.78-1.127-1.401-1.761-3.125-2.79-4.594-2.29-3.274-6.674-5.002-10.59-4.677-2.21.184-4.672 1.2-6.431 2.566-5.347 4.155-6.332 11.883-2.202 17.261 3.629 4.725 10.599 6.331 15.64 3.09 3.145-2.019 5.769-6.767 10.014-6.222 4.529.582 6.593 4.382 7.692 8.393.593 2.167.984 4.348 1.886 6.419a30.612 30.612 0 0 0 3.783 6.408c10.236 13.328 29.344 15.793 42.593 5.497 13.248-10.298 15.7-29.518 5.462-42.846-2.983-3.883-7.256-7.303-11.7-9.294-4.495-2.015-9.45-2.805-14.348-2.439-2.416.18-4.781.767-7.187 1.017zM17.598 70.67a8.738 8.738 0 0 1-12.306-1.588c-2.964-3.858-2.257-9.399 1.577-12.38 3.835-2.98 9.344-2.269 12.308 1.588 2.962 3.857 2.255 9.4-1.58 12.38zM13.91 21.268c-3.683-4.794-2.804-11.682 1.962-15.386 4.765-3.704 11.614-2.821 15.295 1.973 3.682 4.794 2.803 11.683-1.962 15.386-4.766 3.705-11.614 2.82-15.295-1.973zm66.43 68.551c-10.524 8.178-25.698 6.22-33.827-4.363-8.13-10.586-6.184-25.85 4.339-34.027 10.522-8.177 25.696-6.22 33.825 4.365 8.13 10.584 6.184 25.848-4.338 34.025z"/>
</svg>
