<svg xmlns="http://www.w3.org/2000/svg" width="131" height="31" fill="none">
  <path fill="#fff" d="M.843 26.454v2.628H0v-6.713h2.358c.7 0 1.247.187 1.642.562.398.375.597.872.597 1.49 0 .651-.194 1.154-.584 1.507-.386.35-.94.526-1.664.526H.843zm0-.724h1.515c.45 0 .796-.11 1.036-.332.24-.224.36-.547.36-.968 0-.4-.12-.72-.36-.96-.24-.239-.57-.363-.988-.373H.843v2.633zm7.636 2.859c-.316.39-.78.585-1.392.585-.507 0-.893-.154-1.16-.46-.263-.311-.396-.77-.399-1.375v-3.246h.812v3.223c0 .756.293 1.134.879 1.134.62 0 1.033-.242 1.238-.728v-3.629h.812v4.989h-.773l-.017-.493zm4.325-3.73a2.321 2.321 0 0 0-.4-.033c-.533 0-.894.238-1.084.715v3.541h-.813v-4.989h.79l.014.577c.266-.446.644-.669 1.133-.669.158 0 .278.021.36.065v.793zm4.764 1.784c0 .76-.166 1.37-.496 1.835-.331.464-.779.696-1.344.696-.577 0-1.03-.192-1.361-.576V31h-.812v-6.907h.742l.04.553c.33-.43.79-.645 1.378-.645.57 0 1.021.226 1.352.678.334.452.5 1.08.5 1.886v.078zm-.813-.097c0-.562-.114-1.007-.342-1.332a1.087 1.087 0 0 0-.94-.49c-.491 0-.86.23-1.106.688v2.384c.243.454.615.682 1.115.682.39 0 .698-.161.927-.484.23-.326.347-.808.347-1.448zm1.634-.005c0-.488.09-.928.272-1.318.185-.39.44-.692.764-.904a2.016 2.016 0 0 1 1.12-.318c.647 0 1.17.235 1.567.705.401.47.602 1.096.602 1.877v.06c0 .486-.09.922-.268 1.31a2.071 2.071 0 0 1-.76.898 2.018 2.018 0 0 1-1.132.323c-.644 0-1.167-.235-1.568-.705-.398-.47-.597-1.093-.597-1.868v-.06zm.817.102c0 .553.121.997.364 1.332.246.335.574.503.984.503.412 0 .74-.17.983-.507.243-.341.364-.818.364-1.43 0-.547-.124-.99-.373-1.327a1.154 1.154 0 0 0-.983-.512c-.401 0-.725.167-.97.502-.246.335-.37.815-.37 1.439zm7.293 1.116a.63.63 0 0 0-.25-.535c-.165-.13-.453-.24-.865-.332-.41-.092-.737-.203-.98-.332a1.433 1.433 0 0 1-.535-.461 1.156 1.156 0 0 1-.172-.636c0-.41.164-.755.492-1.038.331-.283.753-.424 1.265-.424.538 0 .974.146 1.308.438.337.292.505.666.505 1.12h-.817a.782.782 0 0 0-.285-.604 1.022 1.022 0 0 0-.711-.253c-.296 0-.527.067-.694.203a.65.65 0 0 0-.25.53c0 .206.077.361.232.466.155.104.435.204.84.3.406.095.735.208.987.34.252.133.438.293.558.48.123.184.184.41.184.678 0 .445-.17.804-.51 1.074-.339.268-.78.401-1.32.401-.381 0-.718-.07-1.01-.212a1.686 1.686 0 0 1-.69-.59 1.498 1.498 0 0 1-.246-.825h.812a.908.908 0 0 0 .325.682c.205.166.474.249.808.249.307 0 .553-.065.738-.194a.614.614 0 0 0 .28-.525zm3.842 1.415c-.644 0-1.168-.221-1.572-.664-.404-.446-.606-1.04-.606-1.784v-.157c0-.495.09-.936.268-1.323.181-.39.433-.695.755-.913a1.835 1.835 0 0 1 1.054-.332c.618 0 1.098.214 1.44.64.343.428.514 1.04.514 1.836v.355h-3.219c.012.492.148.89.409 1.194.263.301.597.452 1 .452.288 0 .53-.062.73-.184.199-.123.373-.286.522-.49l.496.407c-.398.642-.995.963-1.791.963zm-.101-4.472c-.328 0-.603.126-.826.378-.222.249-.36.6-.412 1.051h2.38v-.064c-.024-.434-.135-.769-.334-1.006-.2-.24-.468-.36-.808-.36zm4.93 1.844c0-.765.173-1.38.519-1.844.345-.467.798-.701 1.357-.701.556 0 .996.2 1.321.6V22h.813v7.082h-.747l-.04-.535c-.324.418-.777.627-1.356.627-.55 0-1-.236-1.348-.71-.346-.473-.518-1.091-.518-1.853v-.065zm.813.097c0 .566.111 1.008.334 1.328.222.32.53.48.922.48.515 0 .891-.244 1.128-.73v-2.29c-.243-.471-.616-.706-1.12-.706-.398 0-.708.161-.93.484-.223.323-.334.8-.334 1.434zm6.758-1.784a2.325 2.325 0 0 0-.4-.033c-.533 0-.894.238-1.084.715v3.541h-.813v-4.989h.79l.014.577c.266-.446.644-.669 1.133-.669.157 0 .278.021.36.065v.793zm1.633 4.223h-.812v-4.989h.812v4.989zm-.878-6.312a.53.53 0 0 1 .118-.35c.082-.096.202-.143.36-.143.158 0 .279.047.36.143a.519.519 0 0 1 .123.35.501.501 0 0 1-.123.346c-.082.092-.202.138-.36.138-.158 0-.278-.046-.36-.138a.513.513 0 0 1-.118-.346zm3.75 5.155l1.176-3.832h.83l-1.703 4.989h-.62l-1.72-4.989h.83l1.206 3.832zm4.698 1.25c-.644 0-1.168-.222-1.572-.665-.404-.446-.606-1.04-.606-1.784v-.157c0-.495.09-.936.268-1.323.181-.39.433-.695.755-.913a1.836 1.836 0 0 1 1.054-.332c.617 0 1.097.214 1.44.64.343.428.514 1.04.514 1.836v.355h-3.219c.012.492.148.89.409 1.194.263.301.597.452 1 .452.288 0 .53-.062.73-.184.199-.123.373-.286.522-.49l.496.407c-.398.642-.995.963-1.791.963zm-.101-4.473c-.328 0-.603.126-.826.378-.222.249-.36.6-.412 1.051h2.38v-.064c-.024-.434-.135-.769-.334-1.006-.2-.24-.469-.36-.808-.36zm3.666-.609l.026.627c.364-.48.838-.719 1.423-.719 1.004 0 1.51.595 1.52 1.784v3.297h-.813v-3.301c-.003-.36-.082-.626-.237-.798-.152-.172-.39-.258-.716-.258-.263 0-.495.074-.693.221-.2.148-.355.341-.466.581v3.555h-.812v-4.989h.768zm4.21 4.542c0-.148.042-.27.124-.37.085-.098.21-.147.377-.147s.293.05.378.148a.533.533 0 0 1 .132.369c0 .141-.044.26-.132.355-.085.095-.21.143-.377.143s-.293-.048-.378-.143a.525.525 0 0 1-.123-.355zm6.829-.729l1.826-5.537h.922l-2.37 6.713h-.747l-2.367-6.713h.918l1.818 5.537zm6.213 1.176c-.047-.098-.085-.274-.114-.526-.378.412-.829.618-1.353.618-.468 0-.853-.138-1.154-.415a1.39 1.39 0 0 1-.448-1.06c0-.52.187-.922.562-1.208.377-.29.907-.434 1.59-.434h.79v-.391c0-.299-.085-.535-.255-.71-.17-.179-.42-.268-.751-.268-.29 0-.533.077-.729.23-.196.154-.294.34-.294.558h-.817c0-.249.084-.488.25-.719a1.75 1.75 0 0 1 .686-.553c.29-.135.607-.203.952-.203.548 0 .977.144 1.287.433.31.286.471.681.483 1.185v2.297c0 .457.055.822.167 1.092v.074h-.852zm-1.348-.65c.255 0 .496-.07.724-.208.229-.138.394-.318.496-.54v-1.023h-.636c-.996 0-1.493.306-1.493.918 0 .267.085.476.255.627.17.15.388.226.654.226zm4.189.65h-.813V22h.813v7.082zm4.237-.493c-.316.39-.78.585-1.392.585-.507 0-.893-.154-1.16-.46-.263-.311-.396-.77-.399-1.375v-3.246h.813v3.223c0 .756.292 1.134.878 1.134.62 0 1.033-.242 1.238-.728v-3.629h.812v4.989h-.773l-.017-.493zm4 .585c-.644 0-1.168-.221-1.572-.664-.404-.446-.606-1.04-.606-1.784v-.157c0-.495.09-.936.268-1.323.181-.39.433-.695.755-.913a1.836 1.836 0 0 1 1.054-.332c.618 0 1.098.214 1.44.64.343.428.514 1.04.514 1.836v.355h-3.218c.011.492.147.89.408 1.194.263.301.597.452 1 .452.288 0 .53-.062.73-.184.199-.123.373-.286.522-.49l.496.407c-.398.642-.995.963-1.791.963zm-.1-4.472c-.329 0-.604.126-.827.378-.222.249-.36.6-.412 1.051h2.38v-.064c-.024-.434-.135-.769-.334-1.006-.2-.24-.469-.36-.808-.36zm5.892-.609l.022.553c.348-.43.818-.645 1.409-.645.664 0 1.117.267 1.357.802a1.84 1.84 0 0 1 .615-.58c.254-.148.554-.222.9-.222 1.042 0 1.572.58 1.59 1.738v3.343h-.813V25.79c0-.357-.078-.622-.233-.798-.155-.178-.416-.267-.781-.267-.302 0-.552.095-.751.286-.2.187-.315.44-.347.76v3.311h-.817v-3.269c0-.725-.338-1.088-1.014-1.088-.533 0-.897.238-1.094.715v3.642h-.812v-4.989h.769zm6.906 2.448c0-.488.091-.928.272-1.318.185-.39.44-.692.764-.904a2.016 2.016 0 0 1 1.12-.318c.647 0 1.17.235 1.568.705.401.47.601 1.096.601 1.877v.06c0 .486-.089.922-.268 1.31a2.063 2.063 0 0 1-.76.898 2.017 2.017 0 0 1-1.132.323c-.644 0-1.166-.235-1.568-.705-.398-.47-.597-1.093-.597-1.868v-.06zm.817.102c0 .553.122.997.364 1.332.246.335.574.503.984.503.413 0 .74-.17.984-.507.242-.341.364-.818.364-1.43 0-.547-.124-.99-.373-1.327a1.154 1.154 0 0 0-.984-.512c-.4 0-.724.167-.97.502-.246.335-.369.815-.369 1.439zm5.629-3.758v1.208h.887v.66h-.887v3.093c0 .2.04.35.119.452.079.099.213.148.404.148.093 0 .222-.019.386-.056v.692a2.251 2.251 0 0 1-.623.092c-.363 0-.637-.115-.822-.346-.184-.23-.276-.558-.276-.982v-3.093h-.865v-.66h.865v-1.208h.812zm2.722 6.197h-.812v-4.989h.812v4.989zm-.878-6.312c0-.138.04-.255.119-.35.082-.096.202-.143.36-.143.158 0 .278.047.36.143a.519.519 0 0 1 .123.35.501.501 0 0 1-.123.346c-.082.092-.202.138-.36.138-.158 0-.278-.046-.36-.138a.513.513 0 0 1-.119-.346zm3.75 5.155l1.177-3.832h.83l-1.704 4.989h-.619l-1.721-4.989h.83l1.207 3.832zm5.651 1.157c-.047-.098-.085-.274-.114-.526-.378.412-.829.618-1.353.618-.468 0-.853-.138-1.154-.415a1.39 1.39 0 0 1-.448-1.06c0-.52.187-.922.562-1.208.377-.29.907-.434 1.589-.434h.791v-.391c0-.299-.085-.535-.255-.71-.17-.179-.42-.268-.751-.268-.29 0-.533.077-.729.23-.196.154-.294.34-.294.558h-.817c0-.249.084-.488.251-.719.169-.233.398-.418.685-.553a2.22 2.22 0 0 1 .952-.203c.548 0 .977.144 1.287.433.31.286.471.681.483 1.185v2.297c0 .457.056.822.167 1.092v.074h-.852zm-1.348-.65c.255 0 .496-.07.724-.208.229-.138.394-.318.497-.54v-1.023h-.637c-.995 0-1.493.306-1.493.918 0 .267.085.476.255.627.17.15.388.226.654.226zm4.408-5.547v1.208h.887v.66h-.887v3.093c0 .2.04.35.119.452.079.099.214.148.404.148.094 0 .222-.019.386-.056v.692a2.246 2.246 0 0 1-.623.092c-.363 0-.637-.115-.821-.346-.185-.23-.277-.558-.277-.982v-3.093h-.865v-.66h.865v-1.208h.812zm3.812 6.29c-.644 0-1.168-.222-1.572-.665-.404-.446-.606-1.04-.606-1.784v-.157c0-.495.089-.936.268-1.323.181-.39.433-.695.755-.913a1.836 1.836 0 0 1 1.054-.332c.617 0 1.098.214 1.44.64.342.428.514 1.04.514 1.836v.355h-3.219c.012.492.148.89.409 1.194.263.301.597.452 1.001.452.287 0 .53-.062.728-.184.2-.123.374-.286.523-.49l.496.407c-.398.642-.995.963-1.791.963zm-.101-4.473a1.06 1.06 0 0 0-.826.378c-.222.249-.36.6-.412 1.051h2.379v-.064c-.023-.434-.134-.769-.333-1.006-.199-.24-.469-.36-.808-.36zm2.7 1.844c0-.765.173-1.38.518-1.844.346-.467.798-.701 1.357-.701.556 0 .997.2 1.322.6V22h.812v7.082h-.747l-.039-.535c-.325.418-.777.627-1.357.627-.55 0-.999-.236-1.348-.71-.345-.473-.518-1.091-.518-1.853v-.065zm.812.097c0 .566.112 1.008.334 1.328.223.32.53.48.922.48.515 0 .892-.244 1.129-.73v-2.29c-.243-.471-.616-.706-1.12-.706-.398 0-.708.161-.931.484-.222.323-.334.8-.334 1.434zm4.479 1.992c0-.148.041-.27.123-.37.085-.098.211-.147.378-.147s.292.05.377.148a.533.533 0 0 1 .132.369c0 .141-.044.26-.132.355-.085.095-.21.143-.377.143s-.293-.048-.378-.143a.525.525 0 0 1-.123-.355zM.571 18.05C.191 17.669 0 16.979 0 15.984V3.173C0 2.156.185 1.415.555.948c.37-.466 1.141-.7 2.314-.7h3.394c1.871 0 3.388.416 4.55 1.244 1.162.83 1.743 1.939 1.743 3.327 0 .913-.144 1.71-.432 2.394-.288.685-.864 1.245-1.728 1.68v.062c1.07.353 1.84.845 2.314 1.477.473.633.71 1.518.71 2.659 0 1.678-.556 3.022-1.666 4.026-1.11 1.006-2.725 1.509-4.844 1.509H2.808c-1.112 0-1.857-.192-2.237-.576zM5.923 7.433c.926 0 1.563-.14 1.913-.42.35-.28.525-.751.525-1.414 0-1.182-.813-1.773-2.438-1.773H4.135v3.607h1.788zm.278 7.587c1.07 0 1.81-.176 2.22-.528.412-.352.618-.86.618-1.524 0-.829-.205-1.415-.617-1.757-.412-.342-1.172-.513-2.283-.513H4.134v4.322h2.067zM28.443 2.208c0 1.286-.987 1.928-2.962 1.928H22.09v3.296h2.93c1.953 0 2.93.642 2.93 1.928s-.977 1.928-2.93 1.928h-2.93v3.452h3.516c1.974 0 2.961.652 2.961 1.958 0 1.286-.987 1.929-2.961 1.929H20.76c-1.11 0-1.856-.192-2.236-.576-.381-.384-.57-1.073-.57-2.068V3.173c0-1.016.184-1.758.554-2.224.37-.466 1.142-.7 2.314-.7h4.658c1.975 0 2.962.654 2.962 1.96zM42.357 2.208c0 1.286-.988 1.928-2.963 1.928h-3.393v3.296h2.931c1.953 0 2.93.642 2.93 1.928s-.977 1.928-2.93 1.928h-2.93v3.452h3.516c1.974 0 2.96.652 2.96 1.958 0 1.286-.986 1.929-2.96 1.929h-4.843c-1.111 0-1.857-.192-2.237-.576-.38-.384-.571-1.073-.571-2.068V3.173c0-1.016.185-1.758.555-2.224.37-.466 1.142-.7 2.314-.7h4.658c1.975 0 2.963.654 2.963 1.96zM56.115 12.812l2.406-10.324c.164-.726.51-1.322 1.034-1.788.524-.467 1.167-.7 1.928-.7.905 0 1.645.29 2.221.871.575.58.925 1.254 1.05 2.02l2.004 12.532c.041.353.072.638.093.856.02.217.03.399.03.544 0 .725-.16 1.243-.478 1.555-.319.31-.777.465-1.373.465-.637 0-1.12-.192-1.45-.575-.329-.383-.566-1.083-.709-2.099L61.298 6.094h-.062l-2.345 9.298c-.308 1.223-.694 2.021-1.157 2.395-.462.372-1.013.559-1.65.559-.658 0-1.22-.187-1.681-.56-.463-.373-.849-1.171-1.157-2.394L50.87 6.095h-.031L49.266 16.17c-.164 1.016-.401 1.716-.709 2.099-.309.383-.792.575-1.45.575-.576 0-1.033-.156-1.373-.466-.34-.311-.51-.83-.51-1.555 0-.249.063-.715.186-1.4l2.006-12.53c.102-.767.441-1.441 1.017-2.021C49.008.29 49.74 0 50.623 0c.782 0 1.436.233 1.96.7.524.467.868 1.063 1.034 1.788l2.405 10.324h.093zM82.722 15.268a5.38 5.38 0 0 1-1.372 1.881c-.597.529-1.322.944-2.176 1.244-.853.3-1.804.451-2.854.451-.822 0-1.588-.077-2.297-.233-.71-.155-1.322-.368-1.836-.637-.515-.27-.916-.576-1.203-.918-.289-.342-.432-.7-.432-1.073 0-.518.18-.949.54-1.29.36-.342.848-.514 1.466-.514.533 0 1.166.146 1.896.436.73.29 1.538.435 2.422.435.575 0 1.059-.17 1.45-.513.39-.342.587-.772.587-1.29 0-.725-.279-1.249-.834-1.57-.555-.322-1.316-.627-2.282-.918-1.708-.518-2.973-1.145-3.795-1.88-.823-.736-1.234-1.799-1.234-3.188 0-.809.153-1.56.462-2.254a5.383 5.383 0 0 1 1.297-1.804c.554-.507 1.228-.906 2.02-1.197C75.338.146 76.227 0 77.215 0c1.46 0 2.637.265 3.531.793.895.529 1.342 1.146 1.342 1.85 0 .54-.159.965-.477 1.275-.32.312-.777.467-1.373.467-.494 0-1.013-.109-1.558-.327a4.28 4.28 0 0 0-1.59-.326c-.637 0-1.125.145-1.464.435a1.41 1.41 0 0 0-.51 1.119c0 .644.278 1.074.834 1.291.554.217 1.336.493 2.344.824 1.645.56 2.874 1.27 3.687 2.13.812.86 1.218 1.974 1.218 3.342 0 .871-.16 1.67-.478 2.395zM86.1 2.208C86.1.903 87.087.25 89.061.25h7.22c1.974 0 2.961.654 2.961 1.96 0 1.285-.987 1.927-2.96 1.927h-1.544V15.89c0 1.97-.69 2.954-2.067 2.954-1.378 0-2.067-.984-2.067-2.954V4.136H89.06c-1.973 0-2.96-.642-2.96-1.928zM114.111 2.208c0 1.286-.986 1.928-2.961 1.928h-3.394v3.296h2.931c1.954 0 2.931.642 2.931 1.928s-.977 1.928-2.931 1.928h-2.931v3.452h3.517c1.975 0 2.962.652 2.962 1.958 0 1.286-.987 1.929-2.962 1.929h-4.844c-1.11 0-1.855-.192-2.235-.576-.382-.384-.571-1.073-.571-2.068V3.173c0-1.016.185-1.758.555-2.224.37-.466 1.141-.7 2.313-.7h4.659c1.974 0 2.961.654 2.961 1.96zM118.924 18.844c-1.378 0-2.067-.984-2.067-2.954V3.172c0-1.015.185-1.757.555-2.223.371-.466 1.142-.7 2.314-.7h3.209c2.262 0 3.984.528 5.167 1.586 1.183 1.057 1.774 2.436 1.774 4.136 0 1.327-.376 2.43-1.126 3.311-.751.881-1.815 1.436-3.194 1.664l3.271 3.67c.802.932 1.203 1.73 1.203 2.394 0 .539-.185 1-.555 1.383-.37.384-.843.576-1.419.576-.412 0-.787-.131-1.126-.39a7.438 7.438 0 0 1-1.095-1.073l-4.844-6.156v4.54c0 1.97-.689 2.954-2.067 2.954zm5.954-10.868c.452-.404.678-.968.678-1.694 0-.684-.22-1.218-.662-1.602-.442-.383-1.085-.575-1.928-.575h-1.974v4.477h1.912c.863 0 1.522-.202 1.974-.606z"/>
</svg>
