<svg width="235" height="49" viewBox="0 0 235 49" fill="none" xmlns="http://www.w3.org/2000/svg">
<path d="M32.2637 13.1798C31.5309 14.9542 31.3216 16.8852 30.8505 18.764C29.6991 23.2522 28.6523 27.7404 27.6055 32.2808C27.4485 33.0114 27.1868 33.3246 26.3494 33.3246C23.9942 33.2724 21.6389 33.2724 19.2314 33.3246C18.2893 33.3767 18.0799 33.168 18.2893 32.1764C19.6501 26.5401 21.0109 20.9037 22.3194 15.2152C22.6857 13.7017 22.9998 12.136 22.7381 10.5182C22.4764 8.90036 21.4819 8.01315 19.8594 7.8044C18.551 7.64783 17.2425 7.80441 15.9864 7.96097C15.2537 8.06535 15.0443 8.37848 14.8873 9.00474C13.2648 15.8936 11.6423 22.7303 9.96748 29.6192C9.70579 30.8195 9.70579 32.333 8.97305 33.0636C8.18798 33.7943 6.61781 33.2724 5.41403 33.2724C3.89621 33.3246 2.3784 33.2724 0.912919 33.2724C0.0755033 33.3246 -0.133838 33.1158 0.0755161 32.2808C1.90736 24.9222 3.63452 17.6158 5.41403 10.2573C5.98975 7.85659 6.61782 5.45593 7.14121 3.05526C7.24588 2.53338 7.45522 2.16806 7.97861 2.01149C13.0554 0.393649 18.1846 -0.441379 23.5231 0.237071C28.0766 0.811144 30.8505 3.26401 31.9496 7.70003C32.0019 7.90878 31.8973 8.2219 32.2113 8.32628C32.2636 9.89193 32.2637 11.5098 32.2637 13.1798Z" transform="translate(202.736 14.7412)" fill="#C4C4C4"/>
<path d="M24.5993 0.000189682C38.1549 -0.0519988 48.9366 10.8554 48.989 24.6331C49.0413 37.9412 37.9979 48.8486 24.4422 48.8486C10.9913 48.9008 0.052523 37.889 0.000184551 24.32C-0.0521539 10.9076 10.9389 0.0523781 24.5993 0.000189682ZM32.0837 24.8419C35.852 23.3806 36.5848 19.049 33.5491 16.5961C32.7117 15.9177 31.7696 15.3958 30.7752 15.0826C30.0425 14.8217 29.9378 14.4564 30.1471 13.8301C30.4088 12.9951 30.5658 12.1079 30.8275 11.2207C31.0892 10.4901 30.8799 10.1769 30.1471 10.0726C29.8331 10.0204 29.5191 9.91599 29.205 9.8638C28.577 9.65505 28.2629 9.8638 28.1059 10.5422C27.9489 11.4816 27.6349 12.421 27.4255 13.3604C27.3732 13.6214 27.3732 13.8823 26.9021 13.8823C25.5413 13.8823 25.1226 13.4126 25.4367 12.1079C25.5937 11.4295 25.6984 10.751 25.9601 10.1247C26.3788 9.13317 25.803 8.92441 25.0703 8.82003C24.3376 8.71566 23.4478 7.98503 23.2385 9.4463C23.1338 10.2813 22.8197 11.1163 22.6627 11.9513C22.5057 12.682 22.244 12.8907 21.5113 12.682C20.2552 12.3167 18.999 12.0557 17.7429 11.7426C17.4812 11.6904 17.1149 11.4295 17.0102 11.7948C16.7485 12.5776 16.4345 13.3604 16.4868 14.1433C16.5391 14.8217 17.3766 14.6651 17.8999 14.7695C19.4177 15.187 19.7318 15.7089 19.3654 17.2746C18.528 20.6668 17.6382 24.0591 16.8008 27.4513C16.3298 29.3823 16.2251 29.4345 14.2886 28.9126C13.5558 28.7038 13.2418 28.8604 12.9278 29.591C11.9857 31.7829 11.9334 31.783 14.3409 32.357C14.4456 32.4092 14.5503 32.4614 14.7073 32.4614C15.5447 32.6701 16.8008 32.6701 17.2195 33.2442C17.6906 33.9227 16.9578 34.9664 16.7485 35.8536C16.3298 37.6802 16.3298 37.6802 18.1616 38.0978C18.842 38.2543 19.1037 38.0978 19.2084 37.3671C19.3654 36.4799 19.6794 35.6449 19.8365 34.7577C19.9935 33.8705 20.4122 33.9227 21.1449 34.0792C21.8777 34.2358 22.3487 34.4446 22.0347 35.3318C21.7206 36.2712 21.5636 37.2106 21.3019 38.1499C21.2496 38.3587 21.0402 38.6718 21.3543 38.7762C22.087 38.985 22.8721 39.2981 23.6048 39.2459C24.1805 39.1937 24.0235 38.3587 24.1805 37.889C24.4946 37.0018 24.3899 35.8015 24.9656 35.2796C25.646 34.6533 26.7975 35.3318 27.7396 35.3318C30.1995 35.3839 32.3977 34.9664 33.7585 32.6702C35.5903 29.6954 35.0669 27.2426 32.0837 24.8419Z" fill="#C4C4C4"/>
<path d="M16.4441 15.8783C19.6367 14.5214 22.7247 14.3127 25.8127 15.4608C30.1568 17.0787 32.1456 20.4709 32.826 24.8026C34.4485 34.7706 28.796 44.321 19.2704 47.7655C14.5076 49.4877 9.64009 49.0702 4.77261 48.0786C3.41181 47.8177 2.10335 47.348 0.794887 46.8783C0.00981025 46.6173 -0.0948634 46.1998 0.0621519 45.417C2.15569 36.7537 4.19689 28.0904 6.29042 19.4271C7.65122 13.7908 9.01203 8.10225 10.3205 2.4659C10.4775 1.68307 10.7915 1.31776 11.629 1.21338C14.0889 0.900251 16.5488 0.482737 19.0087 0.0652292C19.8984 -0.0913362 20.2125 -0.0391349 19.9508 1.05682C18.747 5.70159 17.7002 10.3985 16.5488 15.0433C16.5488 15.2521 16.5488 15.4086 16.4441 15.8783ZM23.9285 28.6645C23.8761 27.2032 23.7715 25.7941 23.1434 24.4894C22.6724 23.4979 21.9396 22.8194 20.8929 22.6106C18.904 22.1931 17.0198 22.4019 15.2403 23.4457C14.7693 23.7066 14.4552 24.0719 14.2982 24.646C13.0944 29.8126 11.8383 34.9793 10.5822 40.146C10.3728 40.9288 10.6345 41.0332 11.2626 41.1375C13.2514 41.3463 15.188 41.3463 17.0198 40.4069C21.7826 38.0062 23.6145 33.779 23.9285 28.6645Z" transform="translate(50.3398 0.0393066)" fill="#C4C4C4"/>
<path d="M31.1942 13.5168C30.9849 19.8317 29.1007 25.5202 24.3379 29.904C19.7844 34.0791 14.3412 35.2794 8.427 33.7138C3.2455 32.3569 0.680919 28.5471 0.157534 23.4848C-0.679881 15.2913 1.78003 8.29801 8.53169 3.18354C12.7188 4.87754e-05 17.5339 -0.678398 22.6107 0.626313C27.4259 1.82665 30.5138 5.79296 31.0895 11.1162C31.0895 11.899 31.1419 12.6818 31.1942 13.5168ZM21.9827 14.3519C21.9827 13.0993 21.8256 11.8468 21.4593 10.6465C20.9359 9.02864 19.8891 8.08926 18.1096 7.8805C16.1208 7.67175 14.3412 8.24582 13.0328 9.7071C9.26441 13.7778 8.32232 18.5791 9.68312 23.8502C10.1018 25.5724 11.4103 26.4074 13.1898 26.5118C15.545 26.6683 17.3769 25.6246 18.79 23.9023C21.0929 21.0842 21.8256 17.7963 21.9827 14.3519Z" transform="translate(154.503 14.5607)" fill="#C4C4C4"/>
<path d="M17.5354 17.0097C16.0699 17.0097 14.6044 17.0097 13.1389 17.0097C12.5632 17.0097 12.3539 17.1663 12.1968 17.7403C11.2548 21.7588 10.3127 25.8295 9.37057 29.848C9.21356 30.5265 9.21355 31.3093 9.26589 32.04C9.37056 33.5534 10.1556 34.545 11.6735 34.9103C13.9764 35.4322 16.2269 35.0669 18.4251 34.3884C19.2102 34.1275 19.4195 34.284 19.4719 35.0669C19.6289 36.8413 19.7859 38.6157 19.9953 40.3901C20.0476 40.912 19.9953 41.1729 19.4195 41.3817C15.2848 42.843 11.0454 43.2605 6.75365 42.4255C2.40956 41.5904 0.054314 38.5113 0.00197553 33.9709C-0.0503629 30.3177 0.94408 26.8211 1.7815 23.2723C3.40399 16.4356 5.02647 9.59892 6.59662 2.76223C6.85832 1.66628 7.32936 1.30096 8.42847 1.14439C10.836 0.883448 13.1913 0.465953 15.5465 0.0484453C16.3316 -0.10812 16.5409 0.100621 16.3316 0.883448C15.7035 3.28412 15.1278 5.68479 14.5521 8.08546C14.1857 9.49455 14.1857 9.49454 15.7035 9.49454C18.3204 9.49454 20.9374 9.49454 23.5543 9.49454C24.287 9.49454 24.5487 9.54674 24.3394 10.4339C23.816 12.3127 23.3449 14.1915 22.9262 16.1225C22.7692 16.9053 22.4028 17.1662 21.6178 17.1141C20.2046 16.9575 18.8962 17.0097 17.5354 17.0097Z" transform="translate(102.372 6.00562)" fill="#C4C4C4"/>
<path d="M18.9569 0C22.4636 0 25.1328 0.521888 27.7498 1.61784C28.3255 1.87879 28.4302 2.08754 28.1685 2.66161C27.331 4.48821 26.4936 6.26262 25.7609 8.1414C25.4469 8.92423 25.1328 9.13297 24.3478 8.76765C22.5683 7.98483 20.6841 7.72389 18.7475 7.88046C14.6651 8.1414 11.9436 10.2811 10.4257 14.0387C9.37897 16.6481 9.22196 19.3619 9.79768 22.0757C10.3734 24.9461 12.0482 26.3552 14.9792 26.5117C17.1774 26.6683 19.3756 26.3552 21.4691 25.5723C22.0972 25.3636 22.4112 25.3636 22.4636 26.1464C22.6206 28.0774 22.8299 30.0083 22.987 31.9915C23.0393 32.409 22.987 32.67 22.5683 32.8265C17.1251 34.7575 11.6295 35.2794 6.34334 32.5656C2.52264 30.6346 0.586103 27.1902 0.167396 23.0673C-0.565342 16.2828 1.05716 10.2289 6.02931 5.32323C9.74534 1.56566 14.4558 0 18.9569 0Z" transform="translate(126.544 14.5608)" fill="#C4C4C4"/>
<path d="M12.2448 0.00641389C13.4486 0.00641389 14.7047 0.0586023 15.9085 0.00641389C16.7459 -0.0457746 16.7983 0.215164 16.6413 0.997991C15.0188 7.7303 13.3963 14.5148 11.7738 21.2471C10.9364 24.6915 10.099 28.136 9.31387 31.5804C9.15686 32.3111 8.89517 32.6764 8.05775 32.6242C5.59785 32.572 3.13794 32.572 0.730372 32.6242C0.10231 32.6242 -0.107053 32.572 0.0499625 31.8414C2.50987 21.5081 4.96978 11.2269 7.42969 0.893608C7.5867 0.267347 7.84839 0.00640115 8.47646 0.0585896C9.73258 0.0585896 10.9887 0.00641389 12.2448 0.00641389Z" transform="translate(186.641 15.4415)" fill="#C4C4C4"/>
<path d="M4.49152 32.7084C3.34007 32.7084 2.18863 32.6562 1.08952 32.7084C0.09509 32.7606 -0.166607 32.4996 0.0950852 31.508C2.34564 22.1663 4.54386 12.8768 6.79441 3.53505C7.0561 2.43909 7.05609 0.977813 7.73649 0.351551C8.52157 -0.326899 9.98705 0.194989 11.1385 0.142801C12.6563 0.0906122 14.1741 0.194986 15.6396 0.090609C16.634 0.0384206 16.7387 0.351542 16.5294 1.23875C15.1162 6.97947 13.7554 12.7724 12.3423 18.5131C11.2955 22.8448 10.2488 27.1242 9.25432 31.4559C9.04497 32.3431 8.73092 32.7606 7.73649 32.7084C6.68973 32.604 5.59063 32.7084 4.49152 32.7084Z" transform="translate(84.4316 15.3052)" fill="#C4C4C4"/>
<path d="M11.436 4.64178C11.4883 8.76467 6.98721 11.896 3.11417 10.5391C0.863615 9.75624 -0.183151 8.0862 0.0262028 5.73772C0.392572 1.92797 4.26561 -0.78582 7.98164 0.20576C10.2322 0.779833 11.436 2.34549 11.436 4.64178Z" transform="translate(92.8223 0.629517)" fill="#C4C4C4"/>
<path d="M6.44147 0.000707154C9.4771 0.0528956 11.5183 1.98386 11.4136 4.85423C11.3089 8.1421 8.27332 11.0125 4.976 10.9081C1.94037 10.8559 -0.10083 8.87273 0.00384652 6.05455C0.108523 2.81887 3.14415 -0.0514813 6.44147 0.000707154Z" transform="translate(195.114 0.573486)" fill="#C4C4C4"/>
<path d="M4.53759 6.76996C3.3338 6.71777 1.92066 6.40464 0.559861 6.03932C0.0364767 5.93494 -0.0682002 5.62181 0.0364767 5.15211C0.455184 3.58646 0.821555 2.0208 1.24026 0.455151C1.34494 0.0376434 1.50195 -0.0667271 1.92066 0.0376498C3.3338 0.402969 4.74694 0.716103 6.10774 1.39455C7.88725 2.33394 8.56765 3.37771 8.20128 4.7868C7.78257 6.1437 6.63112 6.76996 4.53759 6.76996Z" transform="translate(21.0566 24.7521)" fill="#C4C4C4"/>
<path d="M3.60331 6.02828C2.66122 5.9239 1.56211 5.71514 0.515342 5.4542C-0.00804243 5.29764 -0.0603817 5.03669 0.0442952 4.56699C0.410664 3.21009 0.724696 1.90539 1.03873 0.54849C1.1434 0.130982 1.30042 -0.0777717 1.77146 0.0266052C2.87057 0.339736 3.96968 0.54849 5.01645 1.07037C6.53427 1.8532 7.16233 2.89697 6.8483 4.14949C6.48193 5.40201 5.43515 6.02828 3.60331 6.02828Z" transform="translate(23.1934 16.7261)" fill="#C4C4C4"/>
</svg>
