<svg width="217" height="48" viewBox="0 0 217 48" fill="none" xmlns="http://www.w3.org/2000/svg">
<path d="M44.3973 47.9233C32.2128 47.9233 19.9521 47.9233 7.76761 47.9233C3.8838 47.9233 0.913828 45.5463 0.152297 41.7891C0.0761438 41.2524 4.64802e-06 40.7157 4.64802e-06 40.1789C4.64802e-06 29.3674 4.64802e-06 18.5559 4.64802e-06 7.74441C4.64802e-06 3.83387 2.43691 0.843455 6.16841 0.076682C6.70149 4.67887e-06 7.23454 0 7.76761 0C32.1366 0 56.5818 0 80.9508 0C85.52 0 88.7184 3.22046 88.7184 7.8211C88.7184 18.6326 88.7184 29.4441 88.7184 40.1789C88.7184 44.7795 85.52 48 80.9508 48C68.7663 47.9233 56.5818 47.9233 44.3973 47.9233ZM45.5396 25.2268C45.3873 24.8434 45.3111 24.6134 45.1588 24.3834C43.4073 20.0128 41.6558 15.6422 39.9042 11.2716C39.7519 10.8115 39.4473 10.5815 38.9904 10.5815C37.6196 10.4281 36.2489 10.4281 34.8781 10.5815C34.4212 10.6581 34.1928 10.7348 34.1928 11.2716C34.1928 12.6518 34.1166 13.9553 34.0404 15.3355C33.812 22.0831 33.5074 28.9073 33.2028 35.655C33.2028 36.0383 33.3551 36.1917 33.7358 36.1917C34.802 36.3451 35.8681 36.345 37.0104 36.2684C37.6197 36.1917 37.8481 36.0383 37.8481 35.3482C37.9243 30.4409 38.0766 25.4569 38.2289 20.5495C38.2289 20.0128 38.2289 19.5527 38.3812 19.016C38.6096 19.1693 38.6858 19.476 38.7619 19.7061C40.1327 23.2332 41.5035 26.7604 42.8742 30.2875C43.0265 30.7476 43.255 30.901 43.7119 30.9776C44.6257 31.0543 45.4634 31.0543 46.3011 30.9776C46.8342 30.901 47.0626 30.7476 47.2911 30.2109C48.738 26.6837 50.2611 23.2332 51.7841 19.7061C51.8603 19.5527 51.8603 19.3227 52.1649 19.246C52.1649 19.7828 52.2411 20.3195 52.2411 20.8562C52.3934 25.7636 52.6218 30.5942 52.7741 35.5016C52.7741 36.0383 52.9264 36.2684 53.4595 36.2684C54.6779 36.4217 55.8203 36.345 57.0387 36.2684C57.7241 36.1917 57.8002 35.9617 57.8002 35.3482C57.5718 30.8243 57.3433 26.377 57.1149 21.853C56.9626 18.4026 56.7341 15.0288 56.6579 11.5783C56.6579 10.8882 56.5056 10.5815 55.668 10.5048C54.5257 10.4281 53.3834 10.4281 52.1649 10.5048C51.708 10.5815 51.4795 10.7348 51.3272 11.1182C50.4895 13.1885 49.6519 15.2588 48.738 17.4058C47.6719 20.0128 46.6819 22.6198 45.5396 25.2268ZM67.9286 36.5751C69.6801 36.5751 71.4316 36.4217 73.107 35.7316C76.2293 34.5048 77.9808 32.0511 78.057 28.6773C78.1331 24.9968 76.9908 23.0799 73.5639 21.5463C72.0409 20.8562 70.5178 20.3195 68.9948 19.6294C67.4717 18.9393 66.9386 17.9425 67.1671 16.4089C67.3955 15.1821 68.3855 14.492 69.9086 14.3387C71.8124 14.262 73.6401 14.4153 75.4678 15.1821C75.8485 15.3355 76.0008 15.3355 76.2293 14.8754C76.6101 13.8786 76.9147 12.8818 77.067 11.8083C77.1431 11.5016 77.067 11.2716 76.6862 11.1949C73.8685 10.2748 71.0509 9.81469 68.0809 10.2748C63.0548 11.1182 61.2271 14.8754 61.9887 19.246C62.3694 21.623 64.0448 22.9265 66.1009 23.8467C67.5478 24.4601 68.9947 24.9968 70.3655 25.6102C71.4316 26.0703 72.1932 26.7604 72.4216 27.9105C72.8024 30.0575 71.5839 31.5144 69.147 31.8211C66.9386 32.1278 64.8063 31.7444 62.7502 30.9776C62.141 30.7476 61.9886 30.901 61.8363 31.4377C61.5317 32.4345 61.3033 33.508 61.0748 34.5048C60.9987 34.9649 61.0748 35.1949 61.5317 35.3482C63.7402 36.2684 65.7963 36.6518 67.9286 36.5751ZM24.1405 36.5751C25.4351 36.5751 27.339 36.345 29.1666 35.655C29.6236 35.5016 29.6997 35.3482 29.6236 34.8882C29.3951 33.8147 29.0905 32.8179 28.7097 31.8211C28.5574 31.361 28.329 31.2843 27.9482 31.4377C26.5013 31.9744 24.9782 32.1278 23.4552 32.0511C20.0283 31.8978 17.896 30.1342 17.0583 26.8371C16.4491 24.3834 16.5252 22.0064 17.1345 19.5527C17.896 16.7157 19.7237 15.0288 22.6936 14.6454C24.369 14.492 25.9682 14.6454 27.5674 15.1821C28.0243 15.3355 28.1767 15.2588 28.329 14.7987C28.6336 13.8786 29.0143 12.8818 29.2428 11.885C29.3951 11.3482 29.1666 11.1182 28.7097 10.9648C26.5774 10.1981 24.369 10.0447 22.1606 10.1981C17.8198 10.5048 14.5453 12.4984 12.6414 16.4856C11.2707 19.246 10.966 22.0831 11.1945 25.1502C11.7276 32.2811 16.5252 36.8051 24.1405 36.5751Z" transform="translate(128.281)" fill="#C4C4C4"/>
<path d="M3.20726 20.9625C3.13111 20.8859 3.1311 20.8092 3.1311 20.8092C0.61805 19.1989 1.15113 15.7485 2.90265 13.9849C3.20727 13.6782 3.51189 13.3715 3.8165 13.0648C3.51189 12.7581 3.20727 12.528 2.90265 12.2213C-0.676544 8.5408 0.770375 2.32995 5.72033 0.64305C8.84261 -0.430432 11.8887 -0.20041 14.7825 1.63985C15.0872 1.86988 15.3156 1.86988 15.6202 1.63985C16.9148 0.873073 18.3617 0.489681 19.8848 0.413004C20.3417 0.413004 20.4179 0.566368 20.494 0.949755C20.5702 1.86988 20.5702 2.71333 20.494 3.63346C20.4179 4.01685 20.2656 4.09353 19.9609 4.09353C18.971 4.09353 17.981 4.09353 16.8387 4.09353C17.8287 5.70375 17.981 7.46731 17.5241 9.15421C16.8387 12.068 14.4018 14.1382 11.1272 14.5983C9.68027 14.7517 8.23338 14.8284 6.78647 14.445C6.2534 14.2916 5.94878 14.5983 5.64417 14.905C4.95879 15.5951 4.42572 16.3619 4.80648 17.4354C5.18725 18.4322 6.10108 18.5855 6.93876 18.6622C8.84259 18.7389 10.6703 18.7389 12.5741 18.8156C13.4879 18.8156 14.4018 18.8923 15.2395 19.0456C19.5802 19.8891 21.1794 24.7964 18.2094 28.0935C17.1433 29.3204 15.8487 30.0871 14.3256 30.6239C10.8987 31.774 7.39568 31.9274 3.89263 31.0072C1.91265 30.4705 0.38959 29.397 0.0849779 27.1734C-0.295788 24.7964 0.618059 22.8795 2.52189 21.4993C2.8265 21.2692 3.05496 21.1159 3.20726 20.9625ZM9.83259 21.8827C9.07106 21.8827 8.00491 21.8827 7.01492 21.8827C6.86261 21.8827 6.63417 21.9593 6.48186 21.9593C4.9588 22.266 3.96879 23.4929 3.89263 25.1031C3.81648 26.6367 4.50186 27.6335 6.25339 28.0168C8.53798 28.5536 10.8987 28.4769 13.1072 27.6335C13.9449 27.3267 14.6302 26.8667 15.1633 26.1766C16.0771 25.0264 16.001 22.5727 13.7164 22.1894C12.498 21.8826 11.2795 21.9593 9.83259 21.8827ZM9.37567 11.6846C12.041 11.6846 13.6402 10.0744 13.6402 7.39065C13.6402 4.63026 12.041 2.94337 9.37567 2.94337C6.63416 2.94337 5.11109 4.55358 5.18725 7.39065C5.18725 10.151 6.63416 11.6846 9.37567 11.6846Z" transform="translate(78.8486 14.0789)" fill="#C4C4C4"/>
<path d="M14.4325 9.18212C14.4325 6.34506 14.4325 3.58466 14.4325 0.824272C14.4325 0.287531 14.5087 0.0574986 15.1179 0.0574986C16.0317 -0.0191787 16.8694 -0.0191787 17.7833 0.0574986C18.3163 0.0574986 18.4686 0.287531 18.4686 0.824272C18.4686 5.34823 18.4686 9.8722 18.4686 14.3962C18.4686 19.1502 18.4686 23.8275 18.4686 28.5815C18.4686 29.1949 18.3163 29.3483 17.7071 29.5016C14.2041 30.3451 10.701 30.7284 7.12181 29.9617C3.31416 29.0415 0.801098 26.3578 0.191873 22.3706C-0.188893 19.7636 -0.0365863 17.2332 0.953405 14.7796C2.55262 10.869 6.20798 8.56869 10.5487 8.64537C11.8433 8.64537 13.0618 8.79873 14.4325 9.18212ZM14.4325 19.6102C14.4325 17.4632 14.4325 15.3163 14.4325 13.1693C14.4325 12.7093 14.2802 12.5559 13.8994 12.4026C13.2902 12.2492 12.681 12.0958 11.9956 12.0192C8.1118 11.4824 5.29414 13.476 4.53261 17.2332C4.228 18.9201 4.228 20.607 4.53261 22.2939C4.98953 24.6709 6.36028 26.1278 8.64488 26.7412C10.3964 27.2013 12.2241 27.0479 14.0518 26.7412C14.4325 26.6645 14.5087 26.4345 14.5087 26.0511C14.4325 23.9042 14.4325 21.7572 14.4325 19.6102Z" transform="translate(0 5.53992)" fill="#C4C4C4"/>
<path d="M19.3688 11.0653C19.3688 12.6755 19.1403 14.2857 18.6072 15.8192C17.008 20.4199 12.9719 22.2601 8.47885 21.8001C4.21427 21.4167 0.939691 18.5796 0.17816 13.2122C-0.126452 11.2186 -0.0503039 9.14832 0.482768 7.15471C1.62506 2.40072 5.50887 -0.283 10.3827 0.0237092C14.8757 0.330418 18.6834 3.16748 19.2164 9.22499C19.3687 9.83841 19.3688 10.4518 19.3688 11.0653ZM4.29042 10.9886C4.36658 12.6755 4.44274 14.2857 5.20427 15.8192C6.04196 17.7362 7.56501 18.5796 9.62114 18.6563C11.6773 18.6563 13.3526 17.9662 14.1903 15.9726C15.5611 12.7522 15.5611 9.37834 14.1903 6.15789C13.3526 4.16428 11.6773 3.39753 9.62114 3.39753C7.56501 3.39753 5.9658 4.24097 5.12811 6.23458C4.51889 7.76812 4.36658 9.37836 4.29042 10.9886Z" transform="translate(101.297 14.0083)" fill="#C4C4C4"/>
<path d="M16.236 13.2904C16.236 15.514 16.236 17.7377 16.236 19.9613C16.236 20.4981 16.1598 20.7281 15.5506 20.8048C12.5045 21.4182 9.53453 21.9549 6.41225 21.4949C4.12766 21.1882 2.07152 20.4981 0.853067 18.3511C-1.12691 14.8239 0.472302 10.53 4.27996 8.91979C6.71686 7.92298 9.22992 7.99964 11.743 8.22967C12.1999 8.30635 12.4283 8.22969 12.3522 7.69295C12.276 7.30956 12.3522 6.92618 12.276 6.61947C12.0476 4.54918 10.8291 3.47568 8.6207 3.32233C6.79302 3.16897 4.96534 3.32234 3.21382 3.93576C2.68075 4.08912 2.45229 4.01243 2.22383 3.47569C1.30999 1.25205 1.53845 0.791987 3.89919 0.408601C6.10763 0.0252141 8.31608 -0.204827 10.6007 0.255237C14.1037 0.945333 16.0837 3.0923 16.236 6.77281C16.236 8.8431 16.1599 11.0667 16.236 13.2904C16.1599 13.2904 16.236 13.2904 16.236 13.2904ZM12.276 14.7472C12.276 13.7504 12.276 12.8303 12.276 11.8335C12.276 11.5268 12.1999 11.3734 11.8953 11.3734C10.6007 11.2201 9.30607 11.1434 7.93531 11.2201C7.17378 11.2968 6.41225 11.4501 5.72687 11.8335C4.43227 12.5236 3.82304 13.9805 4.12765 15.6674C4.35611 17.0476 5.26996 18.0444 6.71687 18.2744C8.46839 18.5811 10.1438 18.4278 11.8953 18.1211C12.276 18.0444 12.3522 17.891 12.3522 17.5076C12.276 16.5875 12.276 15.6674 12.276 14.7472Z" transform="translate(35.1309 14.2368)" fill="#C4C4C4"/>
<path d="M3.88381 3.8008C4.18842 3.34073 4.49303 3.03403 4.72149 2.72732C7.15839 -0.186418 10.8899 -0.569791 13.7837 0.657047C16.1445 1.65385 16.9821 3.8008 17.2868 6.1778C17.5152 8.09473 17.4391 10.0117 17.4391 11.9286C17.4391 14.7657 17.4391 17.6794 17.4391 20.5165C17.4391 21.1299 17.3629 21.4366 16.6014 21.4366C15.6876 21.4366 14.8499 21.4366 14.0122 21.4366C13.4791 21.4366 13.4029 21.2066 13.4029 20.7465C13.4029 17.066 13.4029 13.3088 13.4029 9.62828C13.4029 8.78483 13.403 8.01805 13.2507 7.25128C12.8699 4.49089 11.0422 3.26407 8.37683 3.95416C5.86378 4.56758 4.79764 6.40783 4.26457 8.78482C4.11226 9.5516 4.11228 10.3951 4.11228 11.1618C4.11228 14.3823 4.11228 17.526 4.11228 20.7465C4.11228 21.2832 4.03611 21.4366 3.42688 21.5133C2.43689 21.5899 1.52306 21.5899 0.533072 21.5133C0.152306 21.4366 2.32401e-06 21.3599 2.32401e-06 20.9765C2.32401e-06 14.3823 2.32401e-06 7.78802 2.32401e-06 1.19377C2.32401e-06 0.73371 0.152311 0.580365 0.60923 0.580365C4.11227 0.350333 3.50304 -0.109745 3.88381 3.8008Z" transform="translate(57.2305 14.0651)" fill="#C4C4C4"/>
<path d="M10.1468 11.5783C10.1468 14.9521 10.1468 18.2492 10.1468 21.623C10.1468 22.3898 10.0706 23.1566 9.99444 23.8467C9.53752 26.377 7.93832 27.8339 5.1968 28.2172C3.67374 28.4473 2.15068 28.3706 0.627616 27.9872C0.0945439 27.8339 -0.0577647 27.6038 0.0183885 27.1438C0.170695 26.5303 0.246848 25.9936 0.399154 25.3802C0.475307 24.9201 0.70376 24.7668 1.23683 24.9201C1.99836 25.1502 2.83606 25.1502 3.67374 25.0735C5.0445 24.9201 5.95833 24.0767 6.11064 22.6965C6.18679 22.2364 6.18679 21.6997 6.18679 21.2396C6.18679 15.4888 6.18679 9.73803 6.18679 3.98723C6.18679 3.37381 6.11063 3.0671 5.42525 3.14377C5.27295 3.14377 5.19679 3.14377 5.04449 3.14377C3.36912 3.14377 3.36913 3.14377 3.44528 1.45686C3.44528 -4.66173e-06 3.44528 0 4.96834 0C6.49141 0 7.93831 0 9.46137 0C9.99444 0 10.1468 0.15335 10.1468 0.690091C10.1468 4.29393 10.1468 7.97445 10.1468 11.5783Z" transform="translate(19.8975 14.5687)" fill="#C4C4C4"/>
<path d="M2.28459 4.38312C0.152302 4.38312 -4.64802e-06 4.15309 -4.64802e-06 2.00612C0.0761485 0.165867 0.152306 -0.0641699 1.97998 0.0125075C4.8738 0.0891848 4.56918 -0.294206 4.56918 2.61953C4.56918 4.22976 4.41688 4.30645 2.89382 4.38312C2.74151 4.38312 2.51305 4.38312 2.28459 4.38312Z" transform="translate(24.9404 5.73816)" fill="#C4C4C4"/>
</svg>
