<svg width="313" height="80" viewBox="0 0 313 80" fill="none" xmlns="http://www.w3.org/2000/svg">
<path d="M21.9323 30.8213C21.9323 31.3674 21.4837 31.8119 20.9478 31.8119H1.98138C2.45492 36.5868 5.98154 40.9427 10.9412 40.9427C14.3308 40.9427 16.848 39.622 18.7422 36.8662C19.0163 36.4852 19.4275 36.2439 19.9509 36.4725C20.2375 36.5995 20.4369 36.8662 20.4868 37.171C20.5366 37.4885 20.4494 37.6663 20.3622 37.8441C18.4555 41.2348 14.6548 42.8984 10.9288 42.8984C4.54846 42.8984 -1.85692e-10 37.0821 -1.85692e-10 30.8594C-1.85692e-10 24.6367 4.54846 18.8204 10.9288 18.8204C17.3091 18.8077 21.9198 24.6113 21.9323 30.8213ZM19.9011 29.8816C19.4898 25.1066 15.9009 20.7507 10.9412 20.7507C5.98154 20.7507 2.45492 25.1066 1.98138 29.8816H19.9011ZM44.9488 19.2903C45.4971 19.2903 45.8958 19.7729 45.8958 20.2555C45.8958 20.8142 45.4846 21.2206 44.9488 21.2206H39.8645V41.5523C39.8645 42.0349 39.4532 42.5174 38.9174 42.5174C38.3691 42.5174 37.9703 42.0349 37.9703 41.5523V21.2206H33.0854C32.5371 21.2206 32.1383 20.8015 32.1383 20.2555C32.1383 19.7729 32.5495 19.2903 33.0854 19.2903H37.9703V11.8485C37.9703 11.3786 38.2818 10.9468 38.7305 10.8707C39.366 10.7691 39.8645 11.2135 39.8645 11.8231V19.2903H44.9488ZM75.9655 29.1196V41.438C75.9655 41.9967 75.492 42.4031 75.0185 42.4031C74.4702 42.4031 74.0714 41.9841 74.0714 41.438V29.1196C74.0714 24.9669 71.766 20.8142 67.2175 20.8142C61.3855 20.8142 58.8683 26.0083 59.2048 31.3293C59.2048 31.469 59.2671 32.0913 59.2671 32.1548V41.3999C59.2671 41.8698 58.9555 42.3015 58.5069 42.3777C57.8714 42.4793 57.3729 42.0349 57.3729 41.4253V0.965149C57.3729 0.482574 57.7842 1.55021e-06 58.32 1.55021e-06C58.8683 1.55021e-06 59.2671 0.482574 59.2671 0.965149V23.8621C60.8995 20.8904 63.8155 18.8839 67.2051 18.8839C72.7754 18.8839 75.9655 23.8621 75.9655 29.1196ZM109.973 30.8213C109.973 31.3674 109.524 31.8119 108.989 31.8119H90.0097C90.4832 36.5868 94.0098 40.9427 98.9695 40.9427C102.359 40.9427 104.876 39.622 106.77 36.8662C107.045 36.4852 107.456 36.2439 107.979 36.4725C108.266 36.5995 108.465 36.8662 108.515 37.171C108.565 37.4885 108.478 37.6663 108.39 37.8441C106.484 41.2348 102.683 42.8984 98.9571 42.8984C92.5768 42.8984 88.0283 37.0821 88.0283 30.8594C88.0283 24.6367 92.5768 18.8204 98.9571 18.8204C105.35 18.8077 109.961 24.6113 109.973 30.8213ZM107.929 29.8816C107.518 25.1066 103.929 20.7507 98.9695 20.7507C94.0098 20.7507 90.4832 25.1066 90.0097 29.8816H107.929ZM133.251 20.192C133.251 20.8142 132.915 21.1571 132.366 21.2333C126.796 22.0588 124.291 26.694 124.291 32.0913V41.3364C124.291 41.8063 123.98 42.238 123.531 42.3142C122.896 42.4158 122.397 41.9714 122.397 41.3618V20.2936C122.397 19.8237 122.709 19.3919 123.157 19.3157C123.793 19.2141 124.291 19.6586 124.291 20.2682V24.5605C125.849 21.8683 128.977 19.303 132.229 19.303C132.703 19.2903 133.251 19.6459 133.251 20.192ZM164.405 30.8213C164.405 31.3674 163.956 31.8119 163.421 31.8119H144.454C144.928 36.5868 148.454 40.9427 153.414 40.9427C156.804 40.9427 159.321 39.622 161.215 36.8662C161.489 36.4852 161.9 36.2439 162.424 36.4725C162.71 36.5995 162.91 36.8662 162.96 37.171C163.009 37.4885 162.922 37.6663 162.835 37.8441C160.928 41.2348 157.128 42.8984 153.402 42.8984C147.021 42.8984 142.473 37.0821 142.473 30.8594C142.473 24.6367 147.021 18.8204 153.402 18.8204C159.782 18.8077 164.393 24.6113 164.405 30.8213ZM162.374 29.8816C161.963 25.1066 158.374 20.7507 153.414 20.7507C148.454 20.7507 144.928 25.1066 144.454 29.8816H162.374ZM195.023 20.4333V41.5523C195.023 42.111 194.55 42.5174 194.076 42.5174C193.528 42.5174 193.129 42.0983 193.129 41.5523V37.5393C191.571 40.7268 188.78 43 185.253 43C179.621 43 176.493 38.0218 176.493 32.7643V20.3825C176.493 19.8999 176.904 19.4173 177.44 19.4173C177.988 19.4173 178.387 19.8999 178.387 20.3825V32.7643C178.387 36.917 180.692 41.0697 185.241 41.0697C191.621 41.0697 193.116 34.9867 193.116 28.2688V20.3825C193.116 19.8237 193.665 19.2522 194.338 19.4554C194.749 19.5951 195.023 20.0015 195.023 20.4333ZM243 29.0434V41.4253C243 41.9841 242.526 42.3904 242.053 42.3904C241.505 42.3904 241.106 41.9714 241.106 41.4253V29.0434C241.106 24.8907 238.8 20.8142 234.252 20.8142C228.545 20.8142 226.376 27.0369 226.376 31.8754V41.4253C226.376 41.9841 225.903 42.3904 225.429 42.3904C224.881 42.3904 224.482 41.9714 224.482 41.4253V29.0434C224.482 24.8907 222.177 20.8142 217.628 20.8142C211.859 20.8142 209.478 25.4495 209.69 31.6087C209.69 31.7484 209.753 32.0278 209.69 32.0913V41.3999C209.69 41.8698 209.379 42.3015 208.918 42.3777C208.282 42.4793 207.784 42.0349 207.784 41.4253V20.2936C207.784 19.8237 208.095 19.3919 208.544 19.3157C209.179 19.2141 209.678 19.6586 209.678 20.2682V23.7986C211.31 20.8269 214.226 18.8839 217.616 18.8839C221.479 18.8839 224.47 21.373 225.691 25.0431C227.249 21.4492 230.302 18.8839 234.24 18.8839C239.81 18.8839 243 23.7859 243 29.0434Z" transform="translate(70 12)" fill="#C4C4C4"/>
<g opacity="0.6">
<path opacity="0.6" d="M24.4952 -5.89213e-07L-2.35074e-06 11.1693L24.4952 25.6788L48.9808 11.1693L24.4952 -5.89213e-07Z" transform="translate(0 29.5789)" fill="#010101"/>
</g>
<path opacity="0.45" d="M-2.35074e-06 40.7482L24.4952 55.2576V0L-2.35074e-06 40.7482Z" fill="#C4C4C4"/>
<g opacity="0.8">
<path opacity="0.8" d="M0 0V55.2576L24.4856 40.7482L0 0Z" transform="translate(24.4951)" fill="#C4C4C4"/>
</g>
<g opacity="0.45">
<path opacity="0.45" d="M-2.35074e-06 -1.17843e-06L24.4952 34.5988V14.5095L-2.35074e-06 -1.17843e-06Z" transform="translate(0 45.4012)" fill="#010101"/>
</g>
<g opacity="0.8">
<path opacity="0.8" d="M0 14.5095V34.5988L24.5048 -1.17843e-06L0 14.5095Z" transform="translate(24.4951 45.4012)" fill="#CBCBCB"/>
</g>
</svg>
