<svg width="40" height="40" viewBox="0 0 40 40" fill="none" xmlns="http://www.w3.org/2000/svg">
<path d="M19.8628 39.7484C30.8327 39.7484 39.7255 30.8504 39.7255 19.8742C39.7255 8.89798 30.8327 0 19.8628 0C8.89286 0 0 8.89798 0 19.8742C0 30.8504 8.89286 39.7484 19.8628 39.7484Z" fill="#3A5A98"/>
<path d="M28.0917 -1.84283e-07C35.8486 7.76136 35.8489 20.3455 28.0913 28.1075C20.3341 35.8688 7.7569 35.8688 -3.12078e-07 28.1075L28.0917 -1.84283e-07Z" transform="translate(5.82227 5.8501)" fill="#345387"/>
<path d="M25.6309 14.3767L11.2628 -8.70227e-08L3.80288 7.46421L4.2473 7.90888L-5.52532e-07 12.1583L3.4764 15.6367L3.01916 16.094L6.78281 19.8598L2.44389 24.2012L9.85611 31.6177C18.2146 29.9252 24.6665 22.9816 25.6309 14.3767Z" transform="translate(13.9658 7.73584)" fill="#2E4D72"/>
<path d="M2.44045 4.6888C2.44045 5.29853 2.44045 8.02186 2.44045 8.02186H1.12553e-07V12.0977H2.44045V24.2087H7.45363V12.0977H10.8177C10.8177 12.0977 11.1329 10.143 11.2854 8.00651C10.8475 8.00651 7.47274 8.00651 7.47274 8.00651C7.47274 8.00651 7.47274 5.63502 7.47274 5.21945C7.47274 4.80329 8.01909 4.24312 8.55949 4.24312C9.09896 4.24312 10.2372 4.24312 11.291 4.24312C11.291 3.68765 11.291 1.77057 11.291 -1.36813e-07C9.88394 -1.36813e-07 8.28321 -1.36813e-07 7.57718 -1.36813e-07C2.31631 -0.000251745 2.44045 4.07941 2.44045 4.6888Z" transform="translate(13.9492 7.80225)" fill="white"/>
</svg>
