<svg width="26" height="25" viewBox="0 0 26 25" fill="none" xmlns="http://www.w3.org/2000/svg">
<path d="M12.6518 24.8425C19.6393 24.8425 25.3037 19.2813 25.3037 12.4213C25.3037 5.56119 19.6393 0 12.6518 0C5.66443 0 0 5.56119 0 12.4213C0 19.2813 5.66443 24.8425 12.6518 24.8425Z" fill="#3A5A98"/>
<path d="M17.8934 -1.15176e-07C22.8342 4.85081 22.8344 12.7159 17.8931 17.567C12.9521 22.4178 4.94086 22.4178 -1.98782e-07 17.567L17.8934 -1.15176e-07Z" transform="translate(3.7085 3.65625)" fill="#345387"/>
<path d="M16.326 8.98537L7.17399 -5.43887e-08L2.4223 4.66509L2.70537 4.94301L-3.51943e-07 7.59887L2.21434 9.77285L1.92309 10.0586L4.3204 12.4122L1.55667 15.1256L6.27798 19.7609C11.602 18.7031 15.7116 14.3634 16.326 8.98537Z" transform="translate(8.896 4.83496)" fill="#2E4D72"/>
<path d="M1.55448 2.93048C1.55448 3.31155 1.55448 5.01362 1.55448 5.01362H7.1692e-08V7.56102H1.55448V15.1303H4.74769V7.56102H6.89048C6.89048 7.56102 7.09123 6.33932 7.18835 5.00402C6.90944 5.00402 4.75986 5.00402 4.75986 5.00402C4.75986 5.00402 4.75986 3.52186 4.75986 3.26213C4.75986 3.00203 5.10786 2.65193 5.45208 2.65193C5.7957 2.65193 6.5207 2.65193 7.19193 2.65193C7.19193 2.30476 7.19193 1.10659 7.19193 -8.55072e-08C6.29571 -8.55072e-08 5.2761 -8.55072e-08 4.82639 -8.55072e-08C1.47541 -0.000157339 1.55448 2.54961 1.55448 2.93048Z" transform="translate(8.88525 4.87646)" fill="white"/>
</svg>
