<svg xmlns="http://www.w3.org/2000/svg" width="26" height="25" fill="none">
  <ellipse cx="12.84" cy="12.5" fill="#fff" rx="12.109" ry="12.5"/>
  <path fill="#5C6BC0" d="M12.623 0C5.722 0 .125 5.738.125 12.817c0 5.661 3.581 10.465 8.55 12.16.625.119.853-.277.853-.617 0-.305-.01-1.11-.017-2.18-3.477.774-4.211-1.718-4.211-1.718-.567-1.48-1.387-1.875-1.387-1.875-1.136-.795.084-.779.084-.779C5.252 17.9 5.91 19.13 5.91 19.13c1.116 1.957 2.927 1.393 3.639 1.064.112-.828.436-1.393.794-1.714-2.775-.324-5.694-1.423-5.694-6.333 0-1.4.487-2.544 1.287-3.44-.13-.325-.557-1.628.122-3.392 0 0 1.05-.344 3.438 1.314a11.694 11.694 0 0 1 3.13-.431 11.72 11.72 0 0 1 3.13.432c2.385-1.658 3.434-1.313 3.434-1.313.68 1.765.253 3.067.125 3.39.801.898 1.284 2.042 1.284 3.441 0 4.923-2.922 6.006-5.706 6.324.448.396.848 1.178.848 2.373 0 1.714-.015 3.096-.015 3.515 0 .343.225.742.859.616 4.96-1.698 8.539-6.5 8.539-12.16C25.125 5.739 19.528 0 12.623 0z"/>
</svg>
