<svg width="262" height="63" viewBox="0 0 262 63" fill="none" xmlns="http://www.w3.org/2000/svg">
<path d="M217.679 62.8229C218.165 59.9452 218.651 57.0675 219.18 53.9684C214.06 53.9684 209.027 53.9684 203.951 53.9684C200.949 53.9684 197.859 54.4111 194.901 53.9241C191.855 53.4371 188.986 53.7913 186.028 53.7913C152.125 53.9684 118.179 53.8798 84.2761 53.8798C84.0554 53.8798 83.8347 53.7913 83.3491 53.747C84.85 47.0618 86.3067 40.4209 87.8959 33.3373C86.0419 33.3373 84.4086 33.2045 82.7752 33.4259C82.3338 33.4701 81.8482 34.3999 81.7158 35.0197C80.3473 40.6866 79.023 46.3535 77.8311 52.0647C77.5221 53.5257 76.9924 53.9684 75.5356 53.9684C71.1212 53.8798 66.7068 53.9241 61.9392 53.9241C63.396 47.2832 64.8527 40.7751 66.2212 34.4884C63.1311 34.8869 60.0411 35.2853 56.8185 35.728C53.8167 41.6606 51.6095 42.059 45.915 37.7646C46.4447 40.8194 47.0186 44.1841 47.6807 47.5488C48.1663 50.0724 47.2834 51.3563 44.7231 51.4891C43.2663 51.5776 41.7213 51.7547 40.3528 51.4006C37.7042 50.6922 36.2033 52.2417 34.8348 53.9241C32.4069 56.9346 29.7582 57.0675 27.4186 54.0569C26.5357 52.9058 25.6087 51.6662 25.1231 50.338C24.6817 49.0984 24.8141 47.6817 24.6375 46.0878C24.7258 46.0878 24.1961 46.0436 23.6664 46.0436C23.1808 46.0436 22.6511 46.0436 22.1655 46.0436C21.415 48.6999 20.797 51.312 19.87 53.7913C19.6051 54.4996 18.2367 55.3851 17.5303 55.2966C14.7934 54.8981 12.0565 54.3668 9.45199 53.4371C7.24479 52.6402 8.17181 50.6922 8.6574 49.0098C5.08173 48.2572 2.52138 46.442 1.28535 42.9888C0.843905 41.7048 0.888049 40.5538 2.03579 39.624C4.37543 37.8089 5.39074 35.5067 4.72858 32.4519C4.41957 31.0351 4.68444 29.5299 4.68444 28.0689C2.25651 27.4933 0.181744 24.9698 0.00516824 22.4905C-0.127264 20.4097 2.30066 17.9747 5.52317 16.9122C5.74389 18.7716 5.92047 20.6311 6.14119 22.6676C6.49434 22.2692 6.84749 22.0035 7.06821 21.6493C10.3349 15.8939 15.588 13.149 21.8123 11.8651C23.2691 11.5552 24.5934 10.5369 26.006 9.82853C30.7294 7.43781 33.6429 2.30218 39.2051 1.15109C40.7943 0.841181 42.3393 0.398454 43.8843 1.68887e-07C44.1933 1.68887e-07 44.4582 1.68887e-07 44.7672 1.68887e-07C52.36 1.81518 57.3924 7.26072 62.7338 12.7948C63.3077 12.2193 64.1464 11.5552 64.8086 10.7583C66.6185 8.50035 69.223 8.63317 70.15 11.4223C70.9005 13.7245 72.2248 13.9459 74.2113 13.9016C78.1842 13.7688 82.1131 13.8573 86.395 13.8573C85.7329 16.9564 85.1149 19.7899 84.4086 22.9332C85.3797 22.9332 86.1743 22.9332 86.9689 22.9332C100.742 22.9332 114.471 22.889 128.244 22.9775C129.965 22.9775 131.643 23.5973 133.364 23.9072C133.762 23.9958 134.291 24.1729 134.556 23.9958C137.337 22.3577 140.383 22.7119 143.385 22.7119C146.519 22.7119 149.698 22.7119 153.008 22.7119C153.582 20.2326 154.024 17.8419 154.73 15.5397C154.907 14.9642 155.701 14.2115 156.187 14.1673C160.822 14.0787 165.413 14.123 170.401 14.123C169.783 17.0892 169.209 19.8342 168.591 22.8447C169.342 22.889 169.96 22.9775 170.578 22.9775C177.552 22.9775 184.571 22.9332 191.546 23.0218C193.179 23.0661 194.813 23.6416 196.446 23.9072C196.932 23.9958 197.417 23.9958 197.903 23.9515C199.978 23.6416 202.052 23.0218 204.127 23.0218C220.814 22.9332 237.5 23.0218 254.231 22.9332C257.718 22.9332 260.411 23.8187 262 27.0949C262 28.2902 262 29.4413 262 30.6367C260.852 35.5509 259.66 40.4652 258.557 45.4238C257.232 51.2677 253.613 54.1455 247.609 54.1897C243.945 54.1897 240.281 54.1455 236.617 54.234C235.999 54.234 234.984 54.7653 234.851 55.2523C234.233 57.8201 233.792 60.4322 233.306 63C227.965 62.8229 222.844 62.8229 217.679 62.8229ZM50.0204 31.7878C52.6249 32.4961 55.1852 33.3816 57.8338 33.8686C61.3212 34.4884 64.5879 33.9129 67.1482 31.1237C70.9888 26.9621 71.7834 16.3366 68.6491 11.5994C67.8104 10.3598 66.9717 10.1384 65.8681 11.4223C65.0735 12.3521 64.1464 13.2818 63.0428 13.7688C61.5861 14.4329 61.4095 15.2741 61.4978 16.7351C61.5861 18.5945 61.3212 20.4982 61.2329 22.402C61.0564 22.402 60.8356 22.3577 60.6591 22.3577C60.6591 20.8967 60.6591 19.3914 60.6591 17.9304C60.4384 17.8419 60.2618 17.7533 60.041 17.6648C59.2465 18.6831 58.496 19.7013 57.3041 21.1623C57.7897 19.6128 58.0987 18.6831 58.5402 17.3549C57.569 17.9304 56.9068 18.3289 55.8915 18.9487C56.9951 16.6908 58.7609 16.8679 60.9681 17.0007C59.423 15.7611 58.3636 14.9199 56.7302 13.636C58.2311 13.2818 59.2465 13.0162 60.3942 12.7505C59.8645 11.9536 59.4672 10.8025 58.6726 10.1827C55.3618 7.57062 52.1393 4.73717 48.4753 2.70063C43.6195 -0.0442722 34.879 2.922 31.8772 7.83626C32.4952 7.92481 33.1132 8.01335 33.4663 8.05762C31.7006 8.67744 29.361 8.85453 27.9925 10.0942C24.8583 13.0162 21.9448 16.3366 19.3403 19.7899C16.4267 23.6416 16.6033 24.3057 19.3403 28.3345C19.6493 28.7772 19.9583 29.2642 20.3114 29.7955C21.0619 28.8658 21.6799 28.1131 22.2979 27.4048C22.033 28.7772 21.3709 29.884 20.8412 31.0351C19.5168 33.78 20.797 36.2593 23.8429 36.5692C24.9465 36.6578 26.1384 36.2593 27.1979 35.8166C28.9637 35.0639 30.5528 34.0014 32.3627 33.3373C35.497 32.0977 36.115 31.3893 36.0267 27.936C35.9826 26.4751 35.6735 25.0141 35.5853 23.5531C35.4528 21.4722 35.3645 19.4357 35.2763 17.3549C36.2033 20.0555 36.6447 22.8004 37.042 25.5453C37.1303 26.2537 37.2186 27.0506 37.1744 27.759C36.9979 29.3528 36.733 30.9466 36.3799 32.5404C36.2916 33.0274 35.806 33.603 35.3645 33.78C32.6718 34.9754 29.9348 35.9494 27.2862 37.1448C24.2402 38.5172 20.9736 37.676 19.1637 34.8869C18.943 34.4884 18.7222 33.8243 18.8988 33.4701C19.9583 31.168 18.7664 29.4856 17.3979 27.8918C15.588 25.811 15.4114 23.6859 16.9123 21.428C18.7222 18.7716 20.5763 16.1595 22.342 13.5474C12.7628 13.9902 4.81687 22.9332 6.14119 32.4519C6.67092 36.215 8.34839 39.8897 9.93758 43.3872C10.6439 44.981 10.997 46.3092 10.5556 47.9473C9.49613 52.1975 9.54028 52.1975 13.8664 53.26C14.0871 53.3043 14.3078 53.3486 14.5286 53.3928C17.7952 54.0569 17.8394 54.0126 18.6781 50.7365C18.7222 50.5151 18.8547 50.338 18.943 50.1167C19.7376 47.903 20.488 45.6894 21.1943 43.7857C22.6069 45.3795 28.6546 45.0696 30.4204 42.7674C30.4204 43.7857 30.4204 44.7154 30.4204 45.6451C26.1826 46.3978 25.388 48.0801 27.5952 51.5777C28.0366 52.2417 28.4781 52.9501 29.0078 53.5257C30.4204 55.0309 31.7447 54.9424 33.1132 53.4371C33.8195 52.6845 34.4817 51.8433 35.3204 51.312C39.4699 48.5671 41.8096 44.6268 43.2222 39.9782C44.2816 36.4807 44.3258 36.5249 41.6771 34.267C41.5447 34.1785 41.5006 33.9571 41.4123 33.8243C43.8843 34.8869 46.0033 36.3479 48.1663 37.7646C48.8726 38.2516 49.7113 39.0485 50.4177 39.0042C51.6978 38.9157 53.1546 38.5172 54.1699 37.7646C54.9645 37.1448 55.1852 35.7723 55.6266 34.754C55.3618 34.4884 55.0528 34.267 54.7879 34.0014C54.5672 37.4989 52.2717 37.676 49.4465 37.8089C49.6231 35.728 49.8438 33.6915 50.0204 31.7878ZM103.302 31.2122C105.333 31.2122 107.01 31.2122 108.688 31.2122C113.455 31.2122 118.223 31.2122 123.035 31.2122C124.668 31.2122 125.771 31.832 125.771 33.6472C125.771 35.5952 124.226 35.0197 123.167 35.0639C118.399 35.0639 113.632 34.9754 108.864 35.0197C105.112 35.0639 102.287 37.0562 101.36 40.3767C100.786 42.3689 100.345 44.3612 99.9914 46.3977C99.5058 49.2755 101.316 51.6662 104.185 51.7105C112.572 51.799 120.916 51.7547 129.48 51.7547C131.069 44.3612 132.79 37.0562 134.203 29.707C134.689 27.1391 132.835 24.9698 130.186 24.9255C121.754 24.837 113.323 24.8812 104.715 24.8812C104.273 26.8735 103.832 28.8658 103.302 31.2122ZM160.292 15.9382C159.586 18.9044 158.924 21.8264 158.217 24.7927C152.92 24.7927 147.844 24.7484 142.767 24.7927C139.456 24.837 136.587 26.785 135.792 29.884C134.424 35.3739 133.188 40.9522 132.084 46.4863C131.51 49.2755 133.364 51.6219 136.145 51.6662C144.003 51.7547 151.861 51.7105 159.895 51.7105C162.543 39.7568 165.148 27.9361 167.797 15.9382C165.236 15.9382 162.808 15.9382 160.292 15.9382ZM223.727 60.9192C225.934 60.9192 227.833 60.8306 229.731 60.9635C231.055 61.052 231.541 60.4765 231.761 59.2811C232.07 57.4659 232.6 55.695 232.909 53.8798C233.13 52.3746 233.704 51.799 235.337 51.8876C239.751 52.0204 244.166 51.9318 248.58 51.9318C252.553 51.9318 255.246 49.8067 256.129 45.9108C257.232 41.085 258.292 36.3036 259.307 31.4779C260.234 27.2277 258.557 25.1026 254.275 25.1026C248.315 25.0583 242.356 25.1026 236.441 25.1026C231.761 25.1026 231.717 25.1026 230.746 29.5741C228.362 39.8011 226.111 50.1166 223.727 60.9192ZM208.895 51.8876C212.073 51.8876 215.207 51.9318 218.386 51.8876C221.873 51.8433 224.654 49.7625 225.449 46.3977C226.685 41.085 227.877 35.7723 228.98 30.4596C229.598 27.5376 227.877 25.1911 224.919 25.1469C218.165 25.0141 211.411 25.0583 204.657 25.1911C201.699 25.2354 199.139 27.4048 198.433 30.2825C197.108 35.6395 195.916 41.0408 194.857 46.442C194.195 49.7182 196.093 51.8433 199.448 51.8876C202.582 51.8876 205.716 51.8433 208.895 51.8876ZM176.802 51.8876C179.804 51.8876 182.806 51.8876 185.852 51.8876C189.869 51.8876 192.517 49.8067 193.444 45.9108C194.592 40.9522 195.696 35.9937 196.755 31.0351C197.55 27.3605 195.828 25.1026 192.076 25.0583C185.852 24.9698 179.583 24.9698 173.359 25.0583C169.518 25.1026 166.914 27.3605 166.075 31.168C164.971 36.1265 163.868 41.085 162.808 46.0436C162.058 49.5854 163.824 51.8433 167.399 51.8876C170.489 51.8876 173.668 51.8876 176.802 51.8876ZM81.8923 24.9698C82.5545 21.7379 83.1725 18.9044 83.8347 15.8053C81.8041 15.8053 79.95 15.8939 78.1401 15.7611C76.7275 15.6725 76.1095 16.1152 75.8005 17.6205C74.2996 24.9255 72.6221 32.142 71.0329 39.4027C70.15 43.4315 69.2672 47.416 68.3843 51.5334C71.0329 51.5334 73.4167 51.5334 75.9329 51.5334C76.1095 50.825 76.2861 50.2052 76.4185 49.5411C77.6104 44.1398 78.8464 38.7386 79.9942 33.3373C80.3032 31.9206 80.7887 31.2122 82.4221 31.3008C84.9824 31.4779 87.5869 31.345 90.1473 31.345C93.4139 31.345 94.032 32.142 93.3257 35.4181C92.1779 40.7309 90.986 46.0436 89.7941 51.6219C91.8689 51.6219 93.6788 51.5334 95.4887 51.6662C96.9013 51.7547 97.5193 51.312 97.8283 49.851C99.1085 43.7414 100.521 37.6318 101.89 31.5221C102.861 27.0506 101.183 24.9698 96.5923 24.9255C91.7806 24.9698 87.0131 24.9698 81.8923 24.9698ZM39.6907 49.9396C40.088 49.9838 40.6177 50.0281 41.1915 50.0724C46.0474 50.338 46.1357 50.338 45.8708 45.5566C45.7384 43.5643 45.2969 41.6163 44.9438 39.4027C43.0015 43.2101 41.3681 46.5306 39.6907 49.9396ZM5.69975 37.8531C4.99344 38.6058 4.37543 39.4469 3.58083 40.111C2.30066 41.1736 2.21237 42.5018 3.18354 43.6086C4.37543 44.9368 5.83218 46.0436 7.33308 47.0176C7.68623 47.2832 8.74569 46.929 9.18713 46.5306C9.49614 46.2207 9.40785 45.2909 9.14298 44.8039C8.08353 42.4575 6.89164 40.1996 5.69975 37.8531ZM5.96461 25.3682C5.87632 25.1911 5.74389 25.0141 5.6556 24.837C5.47903 24.8812 5.30245 24.9255 5.08173 24.9255C4.41957 24.9698 3.75741 25.0141 3.05111 25.0583C3.05111 24.35 3.00696 23.5973 3.09525 22.889C3.27183 21.6051 3.49255 20.2769 3.75741 18.7716C1.28535 20.7196 0.534896 21.8707 1.28535 23.1989C1.94751 24.4385 1.68264 26.6079 3.88984 26.4751C4.64029 26.4751 5.30245 25.7667 5.96461 25.3682Z" fill="#C4C4C4"/>
<path d="M2.16306 5.44554C2.6045 4.86999 3.04594 4.29445 3.75224 3.40899C2.33963 3.45327 1.32432 3.54181 0.264864 3.58609C0.176575 3.409 0.0882881 3.27618 0 3.09909C1.32432 2.08082 2.64864 1.06255 3.97296 1.35109e-06C4.63512 0.796909 4.98827 1.23963 5.34143 1.68236C5.65043 2.08081 5.95944 2.435 6.26845 2.83345C5.03242 3.7189 3.66395 4.64863 2.29549 5.57836C2.25134 5.53408 2.2072 5.48981 2.16306 5.44554Z" transform="translate(44.8555 14.6985)" fill="#C4C4C4"/>
<path d="M2.42792 3.54617C2.47207 3.10345 2.51621 2.48363 2.6045 1.86381C2.51621 1.81954 2.42792 1.77527 2.33963 1.68672C1.58919 2.97063 0.794592 4.21027 -6.73585e-07 5.53845C0.618016 1.15545 2.11891 -0.0841834 6.09188 0.0043619C5.03242 1.02263 3.7081 2.30654 2.42792 3.54617Z" transform="translate(27.6836 10.931)" fill="#C4C4C4"/>
<path d="M15.3621 0.0503731C14.7441 3.81355 14.7441 3.81355 11.3009 3.81355C8.29908 3.81355 5.29729 3.90209 2.29549 3.725C1.5009 3.68073 0.79459 2.83955 -2.69434e-06 2.35255C0.750446 1.59992 1.41261 0.271734 2.25135 0.183189C4.76756 -0.12672 7.37205 0.0503731 9.9324 0.0503731C11.6982 0.0503731 13.4198 0.0503731 15.3621 0.0503731Z" transform="translate(108.6 41.4774)" fill="#C4C4C4"/>
<path d="M16.2303 1.35109e-06C15.2592 4.51581 14.3763 8.67744 13.361 12.8391C13.2285 13.3261 12.3898 13.9459 11.8601 13.9459C8.76997 14.0344 5.67989 14.0344 2.58981 13.9902C0.470892 13.9459 -0.32369 12.8833 0.11775 10.8468C0.603335 8.41181 1.13305 5.93254 1.70692 3.49754C2.2808 0.973997 3.47269 0.0442733 6.03305 0.0442733C9.29971 6.76207e-07 12.6105 1.35109e-06 16.2303 1.35109e-06ZM2.06009 11.7765C3.86999 11.7765 5.32674 11.8208 6.78349 11.7323C7.0925 11.7323 7.62223 11.3338 7.71052 11.0239C8.41682 8.1019 9.03484 5.1799 9.74114 2.03654C8.15196 2.03654 6.91592 1.85945 5.67989 2.12509C5.01773 2.25791 4.0907 2.96627 3.91413 3.58609C3.16368 6.10963 2.72225 8.72171 2.06009 11.7765Z" transform="translate(140.618 31.3008)" fill="#C4C4C4"/>
<path d="M5.38868e-06 14.1078C1.01532 9.5477 1.8982 5.38607 2.86937 1.22444C3.0018 0.737445 3.79639 0.117625 4.32612 0.073352C7.46034 -0.0151933 10.6387 -0.0151927 13.7729 0.02908C15.6711 0.0733527 16.5099 1.1359 16.1126 3.08389C15.5828 5.69598 15.009 8.2638 14.4351 10.8316C13.9937 12.6911 12.8459 13.9307 10.9477 14.0192C7.4162 14.1963 3.79639 14.1078 5.38868e-06 14.1078ZM2.60449 11.9384C4.23782 11.9384 5.56215 12.0712 6.84233 11.8942C7.4162 11.8056 8.25494 11.2301 8.38737 10.7431C9.09368 8.08671 9.6234 5.38607 10.2856 2.24271C8.60809 2.24271 7.15134 2.15417 5.73873 2.28699C5.29729 2.33126 4.67927 2.95108 4.54684 3.43808C3.88468 6.18298 3.31079 8.88361 2.60449 11.9384Z" transform="translate(234.763 31.4045)" fill="#C4C4C4"/>
<path d="M10.0553 -6.75547e-07C11.6004 -6.75547e-07 13.1454 -6.75547e-07 14.6904 -6.75547e-07C16.4121 -6.75547e-07 17.4274 0.885453 17.1184 2.61209C16.5886 5.6669 16.0589 8.72172 15.0436 11.5994C14.6463 12.662 12.9247 13.8131 11.7328 13.9459C8.68685 14.2558 5.59677 14.123 2.50669 14.0344C0.564355 13.9902 -0.274382 12.8391 0.0787704 10.9796C0.564355 8.45608 1.13822 5.93254 1.71209 3.45327C2.28596 1.01827 3.56614 0.0442713 6.12649 0.0442713C7.40667 -1.35241e-06 8.731 -6.75547e-07 10.0553 -6.75547e-07ZM11.2914 2.12509C9.04001 2.12509 7.23011 2.03654 5.4202 2.16936C4.89047 2.21363 4.14002 2.74491 4.00759 3.18763C3.30128 5.93254 2.72741 8.67744 2.02111 11.8208C4.31659 11.8208 6.30308 11.8651 8.24542 11.7765C8.64271 11.7323 9.26073 11.1567 9.39316 10.714C10.0553 8.05763 10.585 5.31272 11.2914 2.12509Z" transform="translate(203.298 31.4336)" fill="#C4C4C4"/>
<path d="M7.03175 14.0541C5.48671 14.0541 3.94167 14.0984 2.39663 14.0541C0.719154 13.9656 -0.25201 12.9916 0.0569987 11.3092C0.586727 8.43148 1.20474 5.50949 1.95519 2.67603C2.39663 0.949401 3.7651 0.0196754 5.575 0.0196754C8.5768 0.0196754 11.5786 -0.0245973 14.6245 0.0196754C16.7434 0.0639481 17.4939 1.08222 17.0966 3.16304C16.611 5.59803 16.0813 8.0773 15.5074 10.5123C14.8894 13.0358 13.6092 14.0541 10.9606 14.0984C9.68039 14.0984 8.35607 14.0541 7.03175 14.0541ZM11.3137 2.14476C8.97409 2.14476 7.03175 2.10049 5.08942 2.18904C4.73626 2.18904 4.20653 2.58749 4.11824 2.8974C3.41194 5.77512 2.74978 8.65284 2.04348 11.8405C4.33897 11.8405 6.14887 11.8848 7.95878 11.7962C8.44436 11.7519 9.19481 11.3535 9.2831 10.955C9.9894 8.16585 10.6074 5.3324 11.3137 2.14476Z" transform="translate(171.139 31.4581)" fill="#C4C4C4"/>
</svg>
