<svg xmlns="http://www.w3.org/2000/svg" width="40" height="40" fill="none">
  <path fill="#527FA2" d="M20 40c11.046 0 20-8.954 20-20S31.046 0 20 0 0 8.954 0 20s8.954 20 20 20z"/>
  <path fill="#467593" d="M34.141 5.856c7.811 7.81 7.812 20.475 0 28.286-7.81 7.81-20.475 7.81-28.286 0L34.141 5.856z"/>
  <path fill="#416B82" d="M39.91 21.853L28.926 10.868l-.73.73-1.432-1.433-1.322 1.323-1.204-1.204-4.718 4.718-5.022-5.023-.49.49.356.355-.221.221-1.026-1.026-.51.51.474.473-.458.457-.888-.888-1.062 1.062.967.968-.967.967.335.335-.335.336.81.81-1.64 1.638 3.996 3.995-.835.836 2.636 2.636-4.888 4.889 10.885 10.885c9.667-.784 17.389-8.438 18.275-18.075z"/>
  <path fill="#fff" d="M30.273 17.3h-5.83c2.275 3.748-.331 8.68-5.034 8.222-2.872-.28-5.5-3.368-4.335-6.877.073-.222.23-.465.348-.698.113-.222.304-.482.25-.648H9.89v9.618a3.95 3.95 0 0 0 3.588 3.538H26.733c1.918-.197 3.348-1.794 3.538-3.488l.001-9.668z"/>
  <path fill="#fff" d="M19.56 16.352c-.783.095-1.204.264-1.595.499-.898.539-1.743 1.544-1.894 2.89-.305 2.717 1.688 4.585 3.987 4.585 1.831 0 4.06-1.309 4.036-4.036-.02-2.485-2.002-4.242-4.534-3.938zm3.438 4.734c-.334 1.375-1.86 2.415-3.438 2.193-1.51-.212-3.131-2.088-2.243-4.186.327-.772 1.064-1.638 2.591-1.744 1.875-.13 3.621 1.546 3.09 3.737z"/>
  <path fill="#fff" d="M29.127 11.12a4.129 4.129 0 0 0-2.442-1.146H15.324v5.183h-.847V9.974h-.523v5.183h-.848v-5.134a3.931 3.931 0 0 0-.548.146v4.988h-.847v-4.585c-.27.166-.508.354-.702.548-1.127 1.127-1.217 3.065-1.146 5.531h6.33c.256-.06.564-.376.796-.548.853-.628 1.95-.97 3.063-.982h.032c1.113.012 2.21.354 3.063.982.232.172.54.489.797.548h6.329c.029-2.49-.018-4.404-1.146-5.531zm-.869 3.362c0 .29-.235.525-.525.525h-2.19a.526.526 0 0 1-.525-.525v-2.19c0-.29.235-.524.525-.524h2.19c.29 0 .525.234.525.525v2.189z"/>
</svg>
