<svg width="26" height="25" viewBox="0 0 26 25" fill="none" xmlns="http://www.w3.org/2000/svg">
<path d="M12.6519 24.8425C19.6393 24.8425 25.3037 19.2813 25.3037 12.4213C25.3037 5.56119 19.6393 0 12.6519 0C5.66443 0 0 5.56119 0 12.4213C0 19.2813 5.66443 24.8425 12.6519 24.8425Z" transform="translate(0.696289 0.157471)" fill="#4A86C5"/>
<path d="M17.8931 1.69565e-07C22.834 4.85123 22.8344 12.7161 17.8931 17.5672C12.9523 22.418 4.94086 22.418 1.43384e-07 17.5672L17.8931 1.69565e-07Z" transform="translate(4.40137 3.79419)" fill="#3D80B2"/>
<path d="M-2.08559e-07 0.430141C0.0463432 0.287931 0.0885224 0.144149 0.129847 1.27973e-08C0.0886826 0.144359 0.0453821 0.287931 -2.08559e-07 0.430141Z" transform="translate(25.3975 15.9385)" fill="#4A86C5"/>
<path d="M0.000868376 -9.88979e-08L4.2444e-08 0.0030675L0.000868376 -9.88979e-08Z" transform="translate(25.5278 15.9358)" fill="#377CA5"/>
<path d="M18.2296 10.6992L11.3754 3.96998L9.8162 5.50079L8.7322 4.43655L7.82744 5.32482L2.52913 0.122972L2.20051 -3.51927e-08L0.167381 1.99607L2.62166 4.40541L0.21917 6.76396L2.56533 9.06736L1.36867e-07 11.5861L8.15884 19.5878C12.8564 18.8131 16.6747 15.4996 18.0989 11.1323C18.1442 10.9899 18.1874 10.8465 18.2288 10.7021C18.2288 10.7012 18.2292 10.7 18.2296 10.6992Z" transform="translate(7.29883 5.23682)" fill="#377CA5"/>
<path d="M12.6912 7.29977V11.9064H9.97125V7.6083C9.97125 6.52876 9.57749 5.79171 8.59317 5.79171C7.84122 5.79171 7.39412 6.28832 7.19716 6.76846C7.12546 6.94029 7.10704 7.17916 7.10704 7.41965V11.9063H4.3865C4.3865 11.9063 4.42286 4.62672 4.3865 3.87274H7.10688V5.01126C7.10186 5.0197 7.09428 5.02908 7.08931 5.03736H7.10688V5.01126C7.46828 4.4648 8.11394 3.68383 9.55875 3.68383C11.3493 3.68398 12.6912 4.8322 12.6912 7.29977ZM1.53969 -1.02379e-07C0.609138 -1.02379e-07 -2.60698e-08 0.599608 -2.60698e-08 1.38766C-2.60698e-08 2.15904 0.591145 2.77647 1.5037 2.77647H1.52207C2.47061 2.77647 3.06096 2.15904 3.06096 1.38766C3.04302 0.599556 2.47067 -1.02379e-07 1.53969 -1.02379e-07ZM0.161454 11.9064H2.88141V3.8729H0.161454V11.9064Z" transform="translate(7.14941 4.93774)" fill="white"/>
</svg>
