<svg width="40" height="40" viewBox="0 0 40 40" fill="none" xmlns="http://www.w3.org/2000/svg">
<path d="M19.8628 39.7484C30.8327 39.7484 39.7255 30.8504 39.7255 19.8742C39.7255 8.89798 30.8327 0 19.8628 0C8.89287 0 0 8.89798 0 19.8742C0 30.8504 8.89287 39.7484 19.8628 39.7484Z" transform="translate(0 0.251953)" fill="#4A86C5"/>
<path d="M28.0913 2.71306e-07C35.8482 7.76203 35.8489 20.3459 28.0913 28.1078C20.3344 35.8692 7.7569 35.8692 2.25106e-07 28.1078L28.0913 2.71306e-07Z" transform="translate(5.81641 6.0708)" fill="#3D80B2"/>
<path d="M-3.27427e-07 0.688232C0.0727565 0.460694 0.138976 0.230641 0.203853 2.04759e-08C0.139227 0.230976 0.0712477 0.460694 -3.27427e-07 0.688232Z" transform="translate(38.7803 25.502)" fill="#4A86C5"/>
<path d="M0.00144446 -1.64831e-07L7.06013e-08 0.00511255L0.00144446 -1.64831e-07Z" transform="translate(38.9834 25.4976)" fill="#377CA5"/>
<path d="M28.6195 17.1188L17.8589 6.35202L15.4109 8.80134L13.7091 7.09854L12.2887 8.51979L3.97061 0.196758L3.45469 -5.63088e-08L0.262779 3.19375L4.11587 7.04872L0.344086 10.8224L4.02744 14.5079L2.14874e-07 18.538L12.809 31.3408C20.1839 30.1012 26.1784 24.7996 28.4144 17.8118C28.4855 17.584 28.5534 17.3545 28.6182 17.1235C28.6182 17.122 28.6189 17.1201 28.6195 17.1188Z" transform="translate(10.3652 8.37891)" fill="#377CA5"/>
<path d="M19.9245 11.6797V19.0504H15.6544V12.1734C15.6544 10.4461 15.0362 9.26681 13.4909 9.26681C12.3103 9.26681 11.6084 10.0614 11.2992 10.8296C11.1866 11.1046 11.1577 11.4868 11.1577 11.8715V19.0502H6.88658C6.88658 19.0502 6.94366 7.40282 6.88658 6.19644H11.1574V8.01808C11.1496 8.03159 11.1377 8.0466 11.1299 8.05985H11.1574V8.01808C11.7248 7.14374 12.7385 5.89417 15.0068 5.89417C17.8179 5.89442 19.9245 7.73158 19.9245 11.6797ZM2.41724 -1.63807e-07C0.956316 -1.63807e-07 -4.09283e-08 0.959382 -4.09283e-08 2.22027C-4.09283e-08 3.4545 0.928068 4.44239 2.36074 4.44239H2.38957C3.87874 4.44239 4.80555 3.4545 4.80555 2.22027C4.77739 0.959298 3.87883 -1.63807e-07 2.41724 -1.63807e-07ZM0.253475 19.0503H4.52366V6.19669H0.253475V19.0503Z" transform="translate(10.1309 7.90039)" fill="white"/>
</svg>
