<svg width="36" height="48" viewBox="0 0 36 48" fill="none" xmlns="http://www.w3.org/2000/svg">
<path d="M34.2413 24L1.62061 46.2414V24.4048V1.75864L34.2413 24Z" fill="white"/>
<path d="M1.6207 47.7241C1.38346 47.7241 1.14473 47.6678 0.928251 47.5521C0.441906 47.2956 0.137939 46.7915 0.137939 46.2414V1.75861C0.137939 1.2085 0.441906 0.704367 0.928251 0.44785C1.4146 0.18985 2.00177 0.225436 2.45697 0.53385L35.0777 22.7752C35.481 23.051 35.7241 23.5092 35.7241 24C35.7241 24.4908 35.481 24.949 35.0762 25.2247L2.45549 47.4661C2.2049 47.6366 1.9128 47.7241 1.6207 47.7241ZM3.10346 4.56547V43.436L31.6095 24L3.10346 4.56547Z" fill="white"/>
</svg>
