<svg width="215" height="71" viewBox="0 0 215 71" fill="none" xmlns="http://www.w3.org/2000/svg">
<path d="M0.140891 12.7415C0.598788 12.6721 0.563565 12.221 0.634011 11.9435C2.21904 4.90006 7.36157 1.25692 15.1106 1.01404C18.7033 0.909954 22.2256 1.53449 25.6774 2.50599C26.6637 2.78356 27.509 2.81826 28.4953 2.33251C32.0176 0.632378 35.7512 0.562989 39.52 1.18753C40.7528 1.39571 41.8799 1.361 43.1127 1.04873C47.9031 -0.23504 52.7286 -0.408521 57.5189 0.909948C58.1881 1.08343 58.8926 1.29161 59.5266 1.56918C69.3185 6.07973 70.3048 9.96575 68.9663 18.1194C67.6983 25.7874 64.7748 32.8655 60.9707 39.6313C60.7242 40.0824 60.1254 40.5334 60.3719 40.9845C60.6889 41.5396 61.4286 41.2274 61.9922 41.262C63.5772 41.3314 65.127 40.9498 66.712 40.7416C69.072 40.464 70.3048 41.9213 69.5651 44.1072C68.5084 47.3339 66.2189 49.3116 62.908 50.2138C60.7946 50.7689 58.646 51.0812 56.4622 50.8383C55.3351 50.6995 55.0885 51.0812 54.9828 52.0874C54.7011 54.9672 54.3136 57.8123 53.8909 60.6921C53.0104 66.764 50.3334 69.5397 44.1694 70.6847C42.4787 70.997 40.8233 71.1705 39.0973 70.7541C35.6807 69.9214 33.5321 67.9437 32.7925 64.5087C32.0528 60.9697 31.9471 57.3959 31.9119 53.8222C31.9119 52.7813 31.7358 52.6078 30.6439 52.9895C26.875 54.2039 23.2118 53.4405 19.7952 51.7057C19.1612 51.3934 18.9147 51.3587 18.3511 51.7404C15.8503 53.5099 13.6665 53.3364 11.4122 51.1853C9.22838 49.1035 7.85469 46.4665 6.69234 43.7255C3.90973 37.3413 2.07815 30.6449 0.669234 23.8444C0.528342 23.1504 0.669234 22.3524 8.39777e-09 21.832C0.140891 18.744 0.140891 15.7601 0.140891 12.7415ZM33.8844 49.6239C33.8844 50.526 33.8844 51.0812 33.8844 51.6363C33.99 55.3835 33.8139 59.1655 34.5888 62.878C35.2581 66.0354 36.9488 68.3254 40.2949 68.9499C46.318 70.0602 51.3197 66.5211 52.2355 60.588C52.7638 57.1531 53.2217 53.7181 53.6091 50.2831C53.75 49.1729 54.0318 48.8259 55.2646 48.9994C57.8007 49.381 60.3015 48.93 62.6966 48.0973C64.493 47.4727 66.0428 46.4318 67.2756 44.9746C67.7335 44.4194 67.9801 43.7602 67.5926 43.0316C67.2404 42.3376 66.5712 42.1295 65.7962 42.1988C65.1622 42.2682 64.5282 42.3723 63.8942 42.4417C62.3796 42.6499 60.8651 42.8928 59.3505 42.7193C57.5189 42.4764 57.4837 42.407 58.4347 40.811C62.8023 33.6635 66.1133 26.0996 67.2052 17.7725C68.1562 10.4515 66.8529 7.22473 59.1039 3.75507C54.1727 1.56919 48.9245 1.77736 43.7468 2.99174C42.3378 3.30401 41.0346 3.33871 39.5905 3.19992C35.7864 2.78356 31.9471 2.61008 28.5657 4.90005C27.8965 5.35111 27.3681 5.07353 26.7341 4.86535C23.0357 3.72037 19.2317 2.95705 15.3219 3.09584C7.60813 3.37341 3.6984 6.73898 2.4656 14.1987C2.25426 15.5172 2.11337 16.8357 2.18382 18.1541C2.57127 26.2731 4.86075 33.9411 7.74902 41.5049C8.80571 44.2806 10.0737 46.9523 12.1871 49.1382C14.5823 51.6016 17.1183 51.5669 19.5135 49.1035C20.6406 47.9238 21.7677 46.7441 22.754 45.4256C24.2333 43.4132 25.8183 42.0948 28.4601 43.552C28.6362 43.6561 28.8827 43.6561 29.1293 43.6908C28.1078 45.4603 27.6147 45.842 25.6422 46.3277C24.5503 46.6053 23.4584 46.7788 22.4369 47.2298C20.9224 47.9238 20.7815 49.3463 22.0847 50.4219C22.8244 51.0465 23.705 51.3587 24.6208 51.5669C27.826 52.2955 30.8904 51.9139 33.8844 49.6239Z" fill="#C4C4C4"/>
<path d="M15.5333 21.1659C10.9191 21.1312 6.26966 21.0618 1.65546 21.0965C0.316997 21.0965 8.59932e-06 20.7495 8.59932e-06 19.4658C0.0704543 13.498 0.0352228 7.56486 0.0352228 1.59705C0.0352228 0.833727 -0.246556 -0.0336884 1.16236 0.00100814C2.50083 0.0357047 2.14859 0.86842 2.14859 1.52765C2.14859 6.90562 2.21905 12.2836 2.11338 17.6616C2.07816 18.98 2.46559 19.3617 3.76883 19.2923C7.67857 19.1188 11.5883 19.5005 15.4981 19.0841C15.5333 19.778 15.5333 20.472 15.5333 21.1659Z" transform="translate(199.467 22.4554)" fill="#C4C4C4"/>
<path d="M0.00067056 11.2307C-0.0345523 7.06716 1.30391 3.49342 5.21365 1.51571C9.26427 -0.56608 13.5262 -0.531388 17.5064 1.79328C22.7194 4.84658 23.9874 13.6942 19.8664 18.3782C18.8449 19.5579 19.1619 20.0437 20.1833 20.7029C20.5356 20.9111 20.8174 21.2234 21.1344 21.4662C21.5923 21.8132 22.1558 22.1255 21.4161 22.7847C20.923 23.2358 20.5356 23.7909 19.8664 23.0623C19.7607 22.9235 19.5846 22.8541 19.4789 22.7153C18.2461 21.3621 17.0133 20.9805 15.076 21.7091C12.6457 22.6112 9.96875 22.4377 7.4327 21.7785C2.81851 20.5641 0.0358934 16.574 0.00067056 11.2307ZM2.18449 11.0573C2.14927 17.8231 7.43268 21.952 13.8432 20.2172C19.8663 18.5517 22.2615 9.94697 18.0348 4.91597C15.6044 2.03616 11.4833 1.02996 7.60882 2.41783C4.12176 3.6322 2.21971 6.7202 2.18449 11.0573Z" transform="translate(175.832 21.8082)" fill="#C4C4C4"/>
<path d="M8.69296 22.0804C7.3545 22.0804 5.69903 21.9417 4.14922 21.3518C1.54273 20.415 0.239493 18.5414 0.0281564 15.8698C-0.00706648 15.2799 -0.147964 14.6554 0.803052 14.7248C1.43706 14.7942 2.1063 14.5166 2.31764 15.6269C2.88121 18.7149 4.53667 20.1027 7.70673 20.3456C9.39743 20.4844 11.1233 20.5191 12.7436 19.9293C14.5047 19.27 15.3149 18.021 15.3149 16.0085C15.2796 14.2043 14.4343 13.0593 12.6379 12.643C10.0314 12.0184 7.35451 11.5327 4.78324 10.8388C1.29618 9.90196 -0.0775144 7.4038 0.873502 3.93414C1.26095 2.51158 2.14153 1.4013 3.55044 0.915548C6.86139 -0.264135 10.2076 -0.33353 13.5185 0.880849C15.5262 1.60948 16.5829 3.13612 16.9351 5.14852C17.0056 5.63427 17.393 6.4323 16.4068 6.4323C15.7375 6.4323 14.9274 6.84866 14.6456 5.63428C14.0821 3.10143 12.9197 2.16462 10.3484 1.85235C8.69297 1.64417 7.07272 1.67887 5.45247 2.12993C3.69133 2.61568 2.91642 3.83006 2.8812 5.59958C2.84597 7.33441 3.6561 8.4794 5.3468 8.93045C8.05895 9.62439 10.8416 10.1101 13.5185 10.9082C16.9703 11.8797 18.2384 14.2043 17.4282 17.674C16.9703 19.5129 15.7728 20.6926 14.0468 21.3518C12.3914 21.9764 10.7007 22.1151 8.69296 22.0804Z" transform="translate(157.806 21.9226)" fill="#C4C4C4"/>
<path d="M0.0400205 8.6678C0.0400205 6.16965 0.0752466 3.7062 0.00480091 1.20804C-0.0304219 0.271236 0.321804 -0.00633392 1.20238 0.0283626C3.91453 0.0630592 6.59147 -0.0757249 9.30363 0.0630613C12.3328 0.167151 13.953 2.00606 13.953 5.02466C13.9178 7.93918 12.1567 9.81279 9.19796 9.95158C7.19026 10.0557 5.21778 10.021 3.21008 9.98627C2.29428 9.95157 1.97728 10.2638 2.0125 11.166C2.08295 12.9008 2.0125 14.6356 2.04773 16.3704C2.04773 17.0991 1.97728 17.5501 1.02626 17.5154C0.110467 17.4807 -0.0304219 17.0991 0.00480091 16.3357C0.0400237 13.7335 0.0400205 11.2007 0.0400205 8.6678ZM5.95746 8.6678C7.11981 8.59841 8.31739 8.63311 9.44452 8.49432C11.2057 8.25144 12.1567 6.96767 12.1567 5.02466C12.1567 2.97757 11.2409 1.69379 9.37407 1.48561C8.10605 1.34683 6.80281 1.34683 5.53478 1.34683C2.04772 1.31213 2.04773 1.31213 2.04773 4.6777C2.04773 8.63311 2.04772 8.63311 5.95746 8.6678Z" transform="translate(75.2656 25.0652)" fill="#C4C4C4"/>
<path d="M10.6393 1.90604C10.6745 1.59377 10.7801 1.3162 10.7449 1.03862C10.7097 0.344693 11.1676 0.344693 11.6607 0.344693C12.2595 0.344693 12.2595 0.691665 12.2595 1.14272C12.2243 4.78586 12.33 8.42899 12.1891 12.0374C12.0834 14.6397 10.6745 15.9235 8.06798 16.4439C6.48295 16.7562 4.89793 16.6521 3.38335 16.2704C2.11533 15.9582 1.19953 15.1948 0.812077 13.911C0.706408 13.5988 0.318966 13.0783 0.952977 12.9049C1.37565 12.8008 1.86876 12.662 2.25622 13.3559C3.45379 15.4377 6.16595 16.1316 8.59632 15.1254C10.4279 14.3968 11.0971 12.5579 10.5688 9.85156C7.43397 12.0721 3.34812 12.0721 1.34042 9.81686C-0.526391 7.73507 -0.420722 3.43269 1.51653 1.48969C3.70035 -0.626804 7.64532 -0.488025 10.6393 1.90604ZM10.7449 5.82676C10.7801 2.98164 9.08944 1.21212 6.27162 1.17742C3.38334 1.14272 1.55176 2.91224 1.51653 5.79206C1.51653 8.74126 3.17201 10.4067 6.20118 10.4414C8.98378 10.4414 10.7097 8.70657 10.7449 5.82676Z" transform="translate(122.01 30.7166)" fill="#C4C4C4"/>
<path d="M6.9782 6.33046C5.63973 6.33046 4.26604 6.43455 2.92757 6.29576C1.51866 6.15697 1.44822 6.8856 1.76522 7.8571C2.29356 9.62663 3.52636 10.6675 5.39317 10.9104C7.25998 11.1533 8.91546 10.8757 10.0426 9.21027C10.1835 9.00209 10.2891 8.79391 10.3596 8.58573C10.6414 7.82241 11.3811 7.8918 11.8037 8.09998C12.3321 8.37756 11.8742 8.898 11.6981 9.27966C10.5357 11.639 7.36565 12.7493 4.19559 11.8472C1.34254 11.0492 -0.277701 8.48164 0.0393042 5.25486C0.321087 2.27096 2.25833 0.327952 5.18183 0.0503791C9.12679 -0.331283 11.7685 1.47294 12.2616 4.8732C12.4025 5.91409 12.3321 6.50394 10.9936 6.36516C9.69035 6.22637 8.31666 6.33046 6.9782 6.33046ZM6.16808 5.32426C7.40087 5.32426 8.63367 5.28956 9.83125 5.32426C10.7823 5.35896 10.8879 5.01199 10.6414 4.21397C10.0778 2.44444 8.42233 1.16067 6.44985 1.09128C4.30126 0.987186 2.75146 1.924 1.97656 3.72822C1.51866 4.76911 1.41299 5.49774 2.9628 5.32426C4.0547 5.25487 5.11139 5.32426 6.16808 5.32426Z" transform="translate(143.177 30.7334)" fill="#C4C4C4"/>
<path d="M5.40534 -4.23542e-06C7.23693 0.0693889 9.13896 0.104087 10.1604 1.94301C10.4422 2.42876 11.1467 3.26148 10.2309 3.71253C9.42075 4.12889 9.10374 3.46966 8.85718 2.70633C8.39929 1.45726 7.20171 1.14499 6.00413 1.11029C4.59522 1.07559 3.11586 0.936809 2.12962 2.18589C1.35472 3.19209 1.91828 4.51055 3.29197 4.85751C4.77133 5.20448 6.28592 5.37797 7.8005 5.62084C10.1252 6.0025 11.1467 6.97401 11.1467 8.70883C11.1467 10.4437 10.09 11.5193 7.90616 11.9703C6.21547 12.3173 4.52477 12.2479 2.8693 11.8315C1.53083 11.5193 0.509371 10.7906 0.227588 9.36807C0.157142 8.9864 -0.371207 8.43127 0.474141 8.29248C0.932038 8.22309 1.38994 8.04961 1.74217 8.81293C2.7284 11.0682 7.06081 11.9356 8.92762 10.3049C9.52641 9.78443 9.70253 9.15989 9.56164 8.43127C9.38552 7.59855 8.82196 7.14749 8.01184 7.0087C6.5677 6.76583 5.12356 6.52295 3.67942 6.28008C1.28427 5.86372 0.333257 4.96161 0.403702 3.19208C0.474148 1.38786 1.67173 0.346968 3.96121 0.104092C4.34866 0.0346987 4.877 0.0346923 5.40534 -4.23542e-06Z" transform="translate(103.503 30.7142)" fill="#C4C4C4"/>
<path d="M6.16438 -4.23542e-06C10.1446 -4.23542e-06 12.434 2.22058 12.434 6.07189C12.434 9.92321 10.1446 12.1785 6.1996 12.1785C2.36031 12.2132 -0.0348353 9.81913 0.000387533 6.00251C0.0356104 2.28998 2.36032 -4.23542e-06 6.16438 -4.23542e-06ZM10.9195 6.10659C10.9195 2.87981 9.26399 1.14499 6.16438 1.17969C3.27611 1.21438 1.55019 3.0533 1.58542 6.14129C1.62064 9.19459 3.24088 10.9294 6.09393 10.9641C9.22877 10.9641 10.9195 9.29867 10.9195 6.10659Z" transform="translate(89.6768 30.7142)" fill="#C4C4C4"/>
<path d="M2.0077 9.36807C2.0077 8.50066 2.0077 7.63324 2.0077 6.76583C2.04292 5.72493 2.25427 4.57995 0.528347 4.85752C0.211341 4.92691 4.29966e-06 4.68403 4.29966e-06 4.33707C4.29966e-06 3.9901 0.176116 3.74723 0.493122 3.81662C2.25426 4.09419 2.0077 2.94921 1.97247 1.90831C1.97247 1.49195 1.97247 1.11029 1.97247 0.693931C1.97247 0.173483 2.18381 0 2.71216 0C3.2405 0 3.48706 0.173483 3.45184 0.693931C3.41662 1.14499 3.48706 1.63074 3.45184 2.08179C3.31095 3.29617 3.55751 4.0942 5.07209 3.85132C5.45954 3.78193 6.09355 3.64314 6.09355 4.37177C6.09355 5.1004 5.45954 4.99631 5.07209 4.92692C3.52229 4.64934 3.38139 5.44736 3.41661 6.66174C3.48706 8.50066 3.48706 10.3396 3.41661 12.2132C3.38139 13.4623 3.83929 14.2256 5.21298 14.2256C5.60043 14.2256 6.09355 14.0521 6.12878 14.6766C6.164 15.3706 5.63565 15.3359 5.17775 15.3706C2.92349 15.5441 2.04292 14.746 2.0077 12.5602C1.97248 11.4499 2.0077 10.409 2.0077 9.36807Z" transform="translate(115.742 27.314)" fill="#C4C4C4"/>
<path d="M1.92519 1.66849C2.8762 0.211238 4.24989 -0.0316446 5.76447 0.003052C6.25759 0.003052 6.64505 0.0377507 6.64505 0.731682C6.64505 1.39092 6.29282 1.42561 5.76447 1.46031C2.73531 1.66849 1.7843 2.6053 1.64341 5.6239C1.57296 7.35873 1.60818 9.05886 1.60818 10.7937C1.60818 11.3488 1.60818 11.8346 0.833278 11.7999C0.0231526 11.7999 0.0936069 11.2794 0.0936069 10.7243C0.0936069 7.74038 0.058384 4.72178 0.0936069 1.73788C0.0936069 1.25213 -0.329067 0.558197 0.621949 0.350018C1.7843 0.0724451 1.53774 1.07865 1.92519 1.66849Z" transform="translate(136.43 30.7458)" fill="#C4C4C4"/>
<path d="M31.6836 47.5202C28.6897 49.8102 25.6253 50.1919 22.3848 49.4632C21.469 49.2551 20.5885 48.9428 19.8488 48.3182C18.5808 47.2427 18.6864 45.8201 20.201 45.1262C21.1872 44.6751 22.3144 44.5016 23.4063 44.224C25.3435 43.7036 25.8367 43.3566 26.8933 41.5871C26.6468 41.5524 26.4002 41.5524 26.2241 41.4483C23.6176 39.9911 21.9974 41.3095 20.518 43.3219C19.567 44.6404 18.4399 45.8201 17.2775 46.9998C14.9176 49.4632 12.3463 49.4632 9.95116 47.0345C7.83779 44.8486 6.56977 42.177 5.51309 39.4012C2.69526 31.8721 0.405776 24.1694 0.018325 16.0505C-0.0521206 14.732 0.0887706 13.3788 0.300108 12.095C1.53291 4.63529 5.44264 1.26972 13.1564 0.992153C17.0662 0.853366 20.8702 1.61668 24.5686 2.76167C25.1674 2.93515 25.731 3.24742 26.4002 2.79637C29.7816 0.506394 33.6209 0.645183 37.425 1.09624C38.8691 1.26972 40.1724 1.20033 41.5813 0.888057C46.759 -0.291626 52.0072 -0.534498 56.9384 1.65138C64.6874 5.12104 65.9907 8.34782 65.0397 15.6688C63.9478 23.996 60.6368 31.5598 56.2692 38.7073C55.2829 40.3033 55.3182 40.3727 57.185 40.6156C58.7348 40.7891 60.2141 40.5462 61.7287 40.338C62.3627 40.234 62.9967 40.1299 63.6308 40.0952C64.3704 40.0258 65.0397 40.2339 65.4271 40.9279C65.7794 41.6218 65.568 42.3157 65.1101 42.8709C63.8773 44.3281 62.3275 45.369 60.5311 45.9936C58.136 46.8263 55.6352 47.2773 53.0991 46.8957C51.8663 46.7222 51.5845 47.0692 51.4437 48.1795C51.0562 51.6144 50.5983 55.0494 50.07 58.4843C49.1542 64.4174 44.1173 67.9565 38.1294 66.8462C34.7833 66.2217 33.0926 63.9317 32.4233 60.7743C31.6484 57.0618 31.7893 53.2799 31.7189 49.5326C31.6836 48.9775 31.6836 48.4223 31.6836 47.5202ZM54.1558 37.25C53.9093 37.4582 53.8036 37.6664 54.0149 37.944C54.1558 37.8052 54.2967 37.6664 54.4728 37.5276C54.5785 37.3541 54.8251 37.1807 54.5785 37.0072C54.3319 36.799 54.2615 37.0766 54.1558 37.25ZM20.5532 18.4098C21.5747 18.0628 22.5257 17.6465 23.512 17.3342C24.5686 17.0219 25.6605 16.8138 26.8229 16.8485C29.4294 16.9179 31.2258 18.1669 31.8598 20.6304C33.163 25.592 33.3743 30.5536 31.0496 35.3764C30.4861 36.5214 30.0986 37.7358 29.6407 38.9155C29.5351 39.2277 29.1828 39.7135 29.9225 39.8176C33.3743 40.3727 33.797 42.8015 33.6913 45.6466C33.5505 50.3306 33.5857 55.0147 34.1845 59.664C34.6071 62.752 36.474 64.9726 39.0452 64.9726C44.1173 65.0073 47.2874 63.2031 47.9918 58.5884C48.7315 53.8003 49.4007 48.9775 49.7882 44.1547C49.8939 42.6627 50.1052 41.1361 51.5845 40.4421C52.8878 39.8176 52.3595 39.3665 51.8663 38.5685C49.2598 34.4396 46.759 30.2413 45.3149 25.592C43.4833 19.6589 45.6319 16.7791 51.9368 16.6056C52.9935 16.5709 53.1696 16.328 52.7469 15.4259C49.8939 9.4928 45.6319 5.08634 39.01 3.4556C28.3727 0.783965 19.7079 7.79267 20.5532 18.4098ZM1.92036 16.2239C2.51915 23.5796 4.52685 30.97 7.27423 38.1868C8.26047 40.7891 9.3876 43.3566 11.3249 45.4384C12.9803 47.208 14.2836 47.208 15.939 45.4731C17.665 43.6342 19.25 41.7259 20.9759 39.887C21.4338 39.3665 21.3986 39.089 20.9407 38.6032C18.3694 36.001 17.665 32.8089 18.1581 29.3045C18.5103 26.7023 18.3694 24.1 18.299 21.4978C18.1933 15.6341 19.3204 10.1173 23.2302 5.43331C23.829 4.70468 23.7937 4.4965 22.8427 4.21893C19.6022 3.31682 16.3265 2.76167 12.9451 2.93515C6.85155 3.21272 3.04749 6.68238 2.27259 12.6502C2.06125 13.7605 2.02603 14.8014 1.92036 16.2239ZM54.6489 36.7296C56.7623 34.058 58.1712 31.1088 59.404 28.0555C61.5174 22.8163 63.2785 17.5077 63.1729 11.7828C63.1376 10.499 62.9967 9.24993 62.1866 8.17433C58.453 3.21273 49.6121 0.575787 43.4833 2.62288C43.4833 2.65758 43.4833 2.76167 43.5185 2.76167C43.7651 2.93515 43.9764 3.07394 44.223 3.21273C49.1894 5.91906 52.606 9.97855 54.825 15.0789C55.3182 16.2239 55.4943 17.3689 55.4591 18.618C55.3886 21.1161 54.6842 23.5449 54.8955 26.0431C55.1773 29.6168 55.9874 33.1559 54.6489 36.7296ZM30.7679 27.6044C30.8031 25.3491 30.4508 23.302 29.993 21.2896C29.6407 19.763 28.584 18.9303 26.9638 18.8956C24.7095 18.8262 22.7018 19.5895 20.835 20.6998C20.3067 21.0121 20.1658 21.4284 20.2362 22.0183C20.5885 25.0369 20.2362 28.0208 20.0249 31.0047C19.7783 34.509 21.7508 37.7011 24.8152 38.9849C26.999 39.887 27.2456 39.7482 28.0557 37.597C28.5136 36.4173 29.0067 35.2376 29.4998 34.058C30.3452 31.9068 30.8735 29.7556 30.7679 27.6044ZM52.4651 35.7928C53.24 34.4396 53.3809 33.2253 53.3105 32.0456C53.0991 27.8473 52.4651 23.649 53.4514 19.4507C53.557 18.9997 53.4866 18.7221 52.923 18.5833C49.0133 17.4036 46.2307 19.7283 46.9351 23.6143C47.1113 24.6899 47.4987 25.7308 47.8862 26.7717C49.0133 29.8597 50.8449 32.6354 52.4651 35.7928ZM21.5747 46.8957C24.78 48.5611 28.901 47.7631 31.0849 45.1262C31.9654 44.0506 31.895 43.1138 30.9087 42.2463C29.8521 41.3095 29.1828 42.1423 28.6545 42.9056C27.2808 44.918 25.3788 45.9242 23.0188 46.3058C22.4905 46.4099 21.9621 46.4446 21.5747 46.8957ZM62.9263 42.177C59.6154 42.5239 56.8328 43.0444 54.0501 41.6912C53.1696 41.2401 52.1833 42.1423 51.9368 43.2525C51.7607 44.0159 51.8311 44.6404 52.8173 44.7792C56.3396 45.1956 59.6154 44.6404 62.9263 42.177Z" transform="translate(2.2002 2.10364)" fill="#FDFDFD"/>
<path d="M0.0570321 15.5461C-0.788316 4.92893 7.8765 -2.07976 18.549 0.557174C25.1709 2.18791 29.4329 6.59437 32.2859 12.5275C32.7086 13.4296 32.5325 13.6725 31.4758 13.7072C25.1709 13.846 23.0223 16.7605 24.8539 22.6936C26.298 27.3776 28.7989 31.5412 31.4054 35.6701C31.8985 36.4681 32.4268 36.9192 31.1236 37.5437C29.6442 38.2376 29.4329 39.799 29.3272 41.2562C28.975 46.1137 28.2705 50.9019 27.5308 55.69C26.8264 60.3046 23.6563 62.1089 18.5842 62.0742C16.013 62.0742 14.1109 59.8536 13.7235 56.7656C13.0895 52.1163 13.0543 47.4322 13.2304 42.7482C13.336 39.9031 12.9134 37.4743 9.46153 36.9192C8.72185 36.8151 9.07408 36.3293 9.17975 36.017C9.60242 34.8374 10.0251 33.623 10.5887 32.478C12.9134 27.6552 12.702 22.7283 11.3988 17.732C10.7648 15.2685 8.96841 14.0541 6.36192 13.95C5.23479 13.9153 4.14288 14.0888 3.05097 14.4358C2.02951 14.7828 1.04327 15.1644 0.0570321 15.5461Z" transform="translate(22.6973 4.96741)" fill="#C4C4C4"/>
<path d="M6.71822e-08 13.251C0.105669 11.8285 0.140891 10.7876 0.281783 9.74669C1.05669 3.77888 4.89597 0.309228 10.9543 0.0316551C14.3357 -0.141828 17.6114 0.413321 20.8519 1.31543C21.8029 1.593 21.8382 1.80118 21.2394 2.52981C17.3296 7.21385 16.2377 12.7306 16.3082 18.5943C16.3434 21.1966 16.5195 23.7988 16.1673 26.401C15.6742 29.9054 16.3786 33.0975 18.9499 35.6997C19.4078 36.1508 19.4782 36.463 18.9851 36.9835C17.2944 38.8224 15.6742 40.7307 13.9482 42.5696C12.328 44.3045 10.9895 44.3045 9.33405 42.5349C7.3968 40.4531 6.26966 37.8856 5.28342 35.2834C2.60649 27.9971 0.598788 20.572 6.71822e-08 13.251Z" transform="translate(4.12012 5.07654)" fill="#C4C4C4"/>
<path d="M11.1656 34.7699C12.5041 31.2309 11.6588 27.6571 11.4122 24.1181C11.2009 21.6199 11.9053 19.1912 11.9758 16.693C12.011 15.4439 11.8349 14.2989 11.3418 13.154C9.12271 8.05357 5.7061 3.99408 0.739677 1.28775C0.493118 1.14896 0.246558 0.975471 0.0352207 0.836685C-2.14931e-06 0.801988 1.07492e-06 0.732597 1.07492e-06 0.697901C6.12877 -1.3492 14.9697 1.28774 18.7033 6.24935C19.5134 7.32494 19.6896 8.57401 19.6896 9.85779C19.7952 15.5827 18.0341 20.8913 15.9207 26.1305C14.6879 29.1144 13.279 32.0983 11.1656 34.7699Z" transform="translate(45.6846 4.06335)" fill="#C4C4C4"/>
<path d="M10.8342 8.7479C10.9398 10.8991 10.4115 13.0503 9.49569 15.1668C9.00257 16.3464 8.47423 17.4914 8.05155 18.7058C7.24143 20.857 6.99486 20.9958 4.81105 20.0937C1.74666 18.8446 -0.225816 15.6525 0.0207441 12.1135C0.232081 9.12957 0.584309 6.14567 0.232081 3.12707C0.161635 2.57192 0.302528 2.12086 0.83087 1.80859C2.7329 0.698302 4.70538 -0.065016 6.95964 0.0043771C8.57989 0.0737702 9.60136 0.871789 9.98881 2.39844C10.5171 4.44553 10.8694 6.49263 10.8342 8.7479ZM7.03009 1.07996C6.36085 1.14936 5.48028 1.04527 5.55073 1.91269C5.62117 2.88419 6.46652 3.40464 7.41754 3.40464C8.19244 3.40464 9.14346 3.09237 9.03779 2.22495C8.96734 1.14936 7.84021 1.21875 7.03009 1.07996Z" transform="translate(22.1348 20.9602)" fill="#C4C4C4"/>
<path d="M5.63929 17.552C4.01904 14.3599 2.18745 11.6189 1.06032 8.49621C0.672868 7.45531 0.320641 6.41441 0.109304 5.33882C-0.595152 1.4528 2.18745 -0.871865 6.09719 0.307818C6.62553 0.481301 6.7312 0.758873 6.62553 1.17523C5.67451 5.37352 6.2733 9.5718 6.48463 13.7701C6.55508 15.0192 6.41419 16.1988 5.63929 17.552ZM4.68827 1.90386C4.51216 1.14054 3.87814 1.14054 3.31458 1.20993C2.61012 1.31402 1.58866 1.24463 1.51822 2.18144C1.44777 2.97946 2.29312 3.22234 3.03279 3.18764C3.87814 3.15294 4.44171 2.66719 4.68827 1.90386Z" transform="translate(49.0264 20.3444)" fill="#C4C4C4"/>
<path d="M-5.37458e-07 5.03067C0.387451 4.61431 0.915793 4.57961 1.44413 4.47552C3.80406 4.09386 5.74132 3.08767 7.07979 1.07527C7.60813 0.311941 8.27736 -0.520774 9.33405 0.416033C10.3203 1.28345 10.3907 2.22025 9.51016 3.29584C7.32635 5.89809 3.17005 6.66141 -5.37458e-07 5.03067Z" transform="translate(23.7754 43.9688)" fill="#C4C4C4"/>
<path d="M11.0651 0.607303C7.78942 3.03606 4.47847 3.6259 0.956189 3.20954C-0.0300505 3.10545 -0.100496 2.44622 0.075618 1.6829C0.322178 0.537912 1.30842 -0.329502 2.18899 0.121553C4.93637 1.50942 7.75419 0.954269 11.0651 0.607303Z" transform="translate(54.0615 43.6733)" fill="#C4C4C4"/>
<path d="M0.57121 0.277572C0.430318 0.416359 0.289426 0.555149 0.113312 0.693935C-0.0980252 0.416363 0.00764649 0.173487 0.254206 4.23542e-06C0.359875 0.0693973 0.465541 0.173483 0.57121 0.277572Z" transform="translate(56.1035 39.3538)" fill="#326192"/>
<path d="M2.14983e-06 0.317163C0.105671 0.14368 0.176115 -0.133897 0.422675 0.0742828C0.669235 0.282462 0.422674 0.421248 0.317005 0.594731C0.211337 0.490641 0.105671 0.386556 2.14983e-06 0.317163Z" transform="translate(56.3564 39.0366)" fill="#326192"/>
<path d="M1.48319 -4.23542e-06C2.29332 0.138782 3.42045 0.0346987 3.49089 1.14499C3.56134 2.0124 2.61032 2.35937 1.87064 2.32467C0.919627 2.32467 0.0742783 1.80422 0.00383265 0.832722C-0.066613 -0.0346923 0.849182 0.0693889 1.48319 -4.23542e-06Z" transform="translate(27.6816 22.0402)" fill="#FDFDFD"/>
<path d="M3.17418 0.722356C2.8924 1.48568 2.36405 1.97144 1.5187 2.00613C0.779024 2.04083 -0.0663193 1.79796 0.00412639 0.999935C0.0745721 0.0978248 1.09603 0.132515 1.80049 0.0284253C2.36405 -0.0409678 2.99807 -0.0409678 3.17418 0.722356Z" transform="translate(50.54 21.526)" fill="#FDFDFD"/>
</svg>
