<svg width="219" height="55" viewBox="0 0 219 55" fill="none" xmlns="http://www.w3.org/2000/svg">
<path d="M26.8965 25.9544C24.7282 25.9544 22.56 25.8925 20.3918 25.9544C15.7457 26.0782 12.3385 29.4201 12.2765 34.1236C12.2146 35.6089 12.2146 37.1561 12.2765 38.6414C12.2765 39.3841 12.0287 39.6935 11.2234 39.6935C9.73661 39.6316 8.31178 39.7554 6.82501 39.6316C4.6568 39.5079 3.29392 38.1463 2.24079 36.4135C-0.113268 32.3907 -0.237163 27.9967 0.196479 23.5408C0.444274 21.1271 1.06376 18.7754 2.48859 16.7331C3.85146 14.7527 5.64798 13.7624 8.06399 13.8243C13.7013 13.8862 19.3387 13.8862 24.9141 13.8243C25.5336 13.8243 26.6487 14.3194 26.7106 13.0817C26.7106 11.7201 25.5336 12.2771 24.8521 12.2771C21.6308 12.2152 18.3475 12.2152 15.1262 12.2771C14.073 12.2771 13.6394 12.0296 13.7633 10.9156C13.8252 10.3586 13.7633 9.73974 13.7633 9.12086C13.7633 4.7887 15.1881 2.62261 19.2767 1.26108C24.1707 -0.409899 29.1886 -0.409883 34.0825 1.1992C37.5517 2.31319 40.1535 4.97436 39.7818 9.30652C39.534 12.5247 39.7818 15.8048 39.7199 19.0229C39.6579 23.417 36.9941 26.0163 32.5957 26.0782C30.7992 25.9544 28.8169 25.9544 26.8965 25.9544ZM19.5865 8.93521C20.8874 8.93521 22.0644 7.69742 22.0025 6.39777C21.9405 5.16001 20.5777 3.98415 19.4006 4.04604C18.1617 4.10793 17.1085 5.2838 17.1085 6.52156C17.1705 7.88309 18.2236 8.93521 19.5865 8.93521Z" transform="translate(0 1.32983)" fill="#C4C4C4"/>
<path d="M23.4244 25.9311C20.5748 25.9311 17.7251 25.9311 14.8135 25.9311C14.1941 25.9311 13.2029 25.4979 13.2648 26.7356C13.3268 27.9115 14.3179 27.4164 14.8755 27.4164C18.0349 27.4783 21.2562 27.5401 24.4156 27.4164C25.9024 27.3545 26.398 27.8496 26.1502 29.273C26.1502 29.4587 26.1502 29.5825 26.1502 29.7681C26.5219 34.5335 25.4068 37.4423 18.8402 39.0513C13.8224 40.2891 8.74255 40.2272 3.97249 37.8136C1.24673 36.4521 -0.116147 34.286 0.00775071 31.1916C0.131649 27.8496 0.00775449 24.5077 0.0697034 21.1657C0.131652 16.4003 2.7335 13.8629 7.44162 13.8629C11.3444 13.8629 15.2472 13.8629 19.088 13.8629C24.2298 13.8629 27.575 10.521 27.637 5.38426C27.637 3.96083 27.6989 2.5993 27.637 1.17588C27.637 0.371336 27.9467 -7.55469e-06 28.752 -7.55469e-06C30.1149 0.0618805 31.4778 -0.0618729 32.7787 0.0619031C34.823 0.185679 36.3098 1.36154 37.301 3.03252C39.7789 7.2409 40.2126 11.8825 39.4692 16.586C39.1595 18.3188 38.9736 20.0517 38.1683 21.6608C36.7435 24.5076 34.6991 26.2405 31.2919 26.0549C28.6901 25.8692 26.0263 25.9311 23.4244 25.9311ZM22.8669 33.172C22.8669 31.9342 21.6899 30.7583 20.4509 30.7583C19.088 30.7583 18.0349 31.8723 18.0968 33.2957C18.1588 34.7192 19.088 35.5856 20.5128 35.5856C21.8138 35.5237 22.8669 34.4716 22.8669 33.172Z" transform="translate(13.6934 15.1542)" fill="#C4C4C4"/>
<path d="M4.44362 25.0632C4.44362 29.7048 4.38167 34.1607 4.44362 38.6167C4.44362 39.9782 4.25778 40.4733 2.771 39.8544C-0.574238 38.431 0.045255 39.4831 0.045255 35.9555C0.045255 25.9915 0.107204 16.0894 0.045255 6.12546C0.045255 4.76393 0.540842 3.8975 1.53202 3.15484C5.37286 0.49366 9.58538 -0.43469 14.1696 0.18419C16.9573 0.555518 19.0636 2.22652 20.3645 4.70204C23.1522 10.0863 23.5858 15.6562 21.1698 21.288C18.8158 26.6723 13.1784 28.7146 7.23132 26.4866C6.42599 25.9915 5.62065 25.5583 4.44362 25.0632ZM4.31973 13.4282C4.31973 15.1611 4.31973 16.894 4.31973 18.6268C4.31973 22.3401 4.44362 22.5258 8.03666 23.6398C8.4703 23.7635 8.96589 23.9492 9.46149 24.0111C12.8687 24.6918 15.8422 23.2065 16.8334 19.9884C18.2582 15.5324 18.1963 11.0146 16.6476 6.62056C15.6564 3.89749 13.7979 2.72161 10.8863 2.78349C9.02785 2.78349 7.29327 3.27862 5.5587 4.08316C4.69142 4.51638 4.25778 5.07337 4.31973 6.12546C4.38167 8.53909 4.31973 11.0146 4.31973 13.4282Z" transform="translate(73.9941 14.5367)" fill="#C4C4C4"/>
<path d="M22.1158 15.5017C21.9299 19.5864 22.3016 24.5374 21.868 29.4885C21.4963 34.1301 19.1422 37.1007 14.8677 38.6479C12.9473 39.3905 10.903 39.7619 8.8587 40.0094C7.24803 40.1951 7.55777 38.8954 7.30998 38.0909C7.00023 37.0388 7.92946 37.1626 8.487 37.0388C10.2216 36.7913 11.8942 36.4818 13.5049 35.801C15.8589 34.8727 17.2837 33.2636 17.6554 30.6643C17.9032 29.179 17.8413 27.6318 17.9032 26.1465C17.9652 25.1563 17.5935 25.0944 16.7262 25.4038C14.0624 26.5797 11.2127 26.951 8.3631 26.8892C3.53108 26.8273 0.123898 23.4234 0.0619489 18.5961C0.0619489 13.3357 0.123894 8.1371 -3.78106e-06 2.87662C-3.78106e-06 1.45319 0.495599 0.89621 1.73458 0.524882C4.52228 -0.34155 4.46032 -0.403453 4.46032 2.4434C4.46032 7.39444 4.46032 12.4073 4.46032 17.3584C4.46032 21.9381 7.55776 24.5374 12.08 23.8566C12.6376 23.7947 13.1332 23.6091 13.6288 23.4853C17.3457 22.3713 17.5315 22.0619 17.5315 18.2248C17.5315 12.8406 17.5935 7.45632 17.5315 2.01017C17.5315 0.710523 17.8413 0.215427 19.2042 0.277315C21.9299 0.401091 21.9299 0.27733 21.9299 3.0004C22.1157 6.96124 22.1158 10.7364 22.1158 15.5017Z" transform="translate(101.173 14.6912)" fill="#C4C4C4"/>
<path d="M0.0619565 21.1573C0.0619565 15.0922 0.123902 9.02722 3.78106e-06 3.02409C3.78106e-06 1.415 0.495584 0.734238 1.98236 0.36291C4.39836 -0.25597 4.33643 -0.317866 4.33643 2.09577C4.33643 6.92303 4.33643 11.6884 4.33643 16.5157C4.33643 17.6915 4.58422 17.8153 5.5754 17.1964C7.92946 15.7111 10.4694 14.9685 13.2571 14.9685C17.5935 14.9066 20.7529 17.6297 21.1865 21.8999C21.6202 26.4796 21.2485 31.0594 21.3724 35.6391C21.3724 36.4436 21.3724 37.2481 21.3724 38.0527C21.3724 41.2709 21.3724 41.209 18.213 41.209C17.0359 41.209 16.912 40.7139 16.912 39.7855C16.974 34.8964 16.912 30.0691 16.912 25.18C16.912 23.6328 16.7882 22.1475 16.1067 20.786C15.0536 18.6199 13.1951 17.6297 10.7791 18.001C8.67285 18.3723 6.81437 19.4244 5.0798 20.6003C4.33642 21.0954 4.39838 21.7142 4.39838 22.4569C4.39838 28.1506 4.33642 33.7824 4.46031 39.4761C4.46031 40.8995 4.15057 41.5184 2.6638 41.2709C2.35405 41.209 1.98236 41.209 1.67261 41.2709C0.433635 41.4565 7.56028e-06 40.9614 0.0619565 39.6618C0.123905 33.473 0.0619565 27.2842 0.0619565 21.1573Z" transform="translate(144.972)" fill="#C4C4C4"/>
<path d="M23.9645 14.1732C23.9026 15.8442 23.4689 18.2578 22.4158 20.4858C20.3095 25.0036 16.7165 27.3554 11.7606 27.2935C6.86662 27.2316 3.39747 24.818 1.41511 20.3001C-0.195566 16.525 -0.443365 12.5641 0.733664 8.60328C2.34434 3.3428 6.61883 0.0627562 11.8225 0.000868194C17.0882 -0.0610198 21.4866 3.21905 23.1592 8.47953C23.7167 10.0267 24.0265 11.6977 23.9645 14.1732ZM19.1944 12.9354C19.2564 11.0788 18.9467 8.66519 17.7077 6.49911C16.3448 4.14736 14.3624 2.84769 11.5747 3.03336C8.78702 3.21902 6.74272 4.64246 5.81348 7.30365C4.20281 11.9452 4.51256 16.5868 6.55688 20.9809C7.61001 23.3326 9.59236 24.6323 12.2562 24.5085C14.9819 24.4466 16.8404 23.0851 17.8935 20.6096C18.9466 18.3816 19.1325 15.9679 19.1944 12.9354Z" transform="translate(170.07 14.4725)" fill="#C4C4C4"/>
<path d="M-7.56212e-06 15.3793C-7.56212e-06 12.223 0.0619413 9.00483 -7.56212e-06 5.84855C-7.56212e-06 4.73456 0.37169 4.0538 1.30092 3.49681C4.95591 1.02129 8.98259 -0.216456 13.381 0.0310963C18.5227 0.340536 21.2485 3.18736 21.2485 8.32407C21.2485 13.9559 21.1865 19.5258 21.2485 25.1576C21.2485 26.3954 20.9387 26.8286 19.6378 26.7667C16.7882 26.7048 16.7882 26.7667 16.7882 23.9818C16.7882 19.2164 16.7882 14.5129 16.7882 9.74752C16.7882 4.61082 13.7526 2.13529 8.67284 3.1255C8.2392 3.18738 7.80555 3.31116 7.43386 3.43494C4.64616 4.36326 4.46032 4.61079 4.46032 7.51953C4.46032 13.3989 4.39837 19.2783 4.46032 25.1576C4.46032 26.3954 4.15057 26.8286 2.84965 26.7667C-3.84014e-06 26.7048 -7.56212e-06 26.7667 -7.56212e-06 23.9199C-7.56212e-06 21.1349 -7.56212e-06 18.2262 -7.56212e-06 15.3793Z" transform="translate(197.751 14.4423)" fill="#C4C4C4"/>
<path d="M7.43387 20.7283C7.43387 23.2038 7.43387 25.6793 7.43387 28.1548C7.49582 31.0636 8.2392 31.9919 11.0889 32.5489C11.8322 32.6726 12.3278 32.8583 12.3278 33.7866C12.3278 34.7149 12.08 35.0244 11.1508 35.0244C9.10649 35.0244 7.18607 34.715 5.4515 33.5391C3.59303 32.1776 3.03549 30.1971 3.03549 27.9692C3.03549 22.9562 2.97354 17.9433 3.03549 12.9304C3.03549 11.6926 2.72574 11.0737 1.42482 11.3213C0.247788 11.5069 0 10.95 0 9.83599C0 8.72201 0.309752 8.35067 1.36288 8.47445C2.78771 8.722 3.09744 8.04124 3.03549 6.74159C2.91159 5.56572 3.15939 4.32795 2.97354 3.21397C2.78769 1.60488 3.46914 0.924095 4.95591 0.490879C7.49582 -0.313665 7.43387 -0.375561 7.43387 2.22374C7.43387 3.89471 7.49582 5.56571 7.43387 7.23669C7.37192 8.2269 7.74362 8.59822 8.7348 8.47445C9.35429 8.41256 10.0357 8.47445 10.6552 8.47445C11.6464 8.41256 12.3278 8.41257 12.3898 9.83599C12.3898 11.3832 11.6464 11.3213 10.5933 11.3213C7.43387 11.3213 7.43387 11.3213 7.43387 14.4157C7.43387 16.5199 7.43387 18.6241 7.43387 20.7283Z" transform="translate(127.563 6.6178)" fill="#C4C4C4"/>
</svg>
