<svg xmlns="http://www.w3.org/2000/svg" width="25" height="25" fill="none">
  <path fill="#FFC107" d="M12.5 25C19.404 25 25 19.404 25 12.5S19.404 0 12.5 0 0 5.596 0 12.5 5.596 25 12.5 25z"/>
  <path fill="#EDB614" d="M21.338 3.66c4.882 4.882 4.882 12.797 0 17.679-4.881 4.881-12.797 4.881-17.678 0l17.678-17.68z"/>
  <path fill="#fff" d="M14.178 16.86H8.52v1.265h5.657V16.86zM16.81 11.052l1.19-.217L17.033 5l-1.19.216.967 5.836zM8.682 14.567l5.633.544-.111 1.259-5.633-.543.11-1.26zM14.372 14.681l.314-1.22-5.463-1.538-.314 1.221 5.463 1.537zM10.527 9.005l4.872 3.008-.613 1.09-4.874-3.009.614-1.09zM13.407 6.234l3.187 4.893-.998.713-3.188-4.893.999-.713z"/>
  <path fill="#fff" d="M15.956 20H7v-5.625h.896v4.688h7.164v-4.688h.896V20z"/>
</svg>
