<svg width="27" height="25" viewBox="0 0 27 25" fill="none" xmlns="http://www.w3.org/2000/svg">
<path d="M12.6538 24.8464C19.6423 24.8464 25.3077 19.2844 25.3077 12.4232C25.3077 5.56206 19.6423 0 12.6538 0C5.66531 0 0 5.56206 0 12.4232C0 19.2844 5.66531 24.8464 12.6538 24.8464Z" transform="translate(0.973633 0.104736)" fill="#13B3CA"/>
<path d="M17.8938 -1.24774e-07C22.8348 4.85081 22.8352 12.7161 17.8936 17.5674C12.9525 22.4187 4.94086 22.4187 -1.2709e-07 17.5678L17.8938 -1.24774e-07Z" transform="translate(4.68066 3.7439)" fill="#10ABB6"/>
<path d="M20.2555 7.59829L16.8359 4.24103L16.554 4.51759L12.2462 0.288509L12.0229 0.507615L11.5059 6.07874e-08L10.8742 0.620157L10.3624 0.117836L9.5391 0.92591L10.5438 1.9121L6.68589 5.70008L2.92609 2.00923L2.10302 2.8171L3.18659 3.88076L2.42406 4.62924L3.66807 5.85057L3.11969 6.38896L4.63519 7.87705L4.38789 8.12006L5.77893 9.48597L4.14496 11.0904L2.9277 9.89551L1.75203 11.0498L0.293277 9.61738L1.30349e-07 9.90552L8.58458 18.3336C14.6053 17.9331 19.468 13.3998 20.2555 7.59829Z" transform="translate(5.90918 6.58423)" fill="#0EA2A4"/>
<path d="M15.9644 5.41372C16.9757 5.33195 17.6613 4.88042 17.9254 4.26808C17.5604 4.48813 16.4281 4.72799 15.8028 4.49934C15.7722 4.35541 15.7381 4.21807 15.7045 4.09473C15.228 2.37679 13.5967 0.993267 11.8873 1.16017C12.0256 1.10544 12.1663 1.05423 12.3059 1.00857C12.4939 0.942265 13.5978 0.765774 13.4242 0.38328C13.2776 0.0469143 11.9289 0.637664 11.675 0.714928C12.0102 0.591169 12.5646 0.378143 12.6237 5.43887e-08C12.1101 0.0690345 11.606 0.307536 11.2167 0.654333C11.3571 0.505466 11.4638 0.324415 11.4866 0.129472C10.1163 0.98855 9.31603 2.72059 8.66872 4.4009C8.16028 3.91724 7.70961 3.53616 7.30506 3.32471C6.17093 2.7273 4.81485 2.10416 2.68605 1.32843C2.6207 2.01982 3.03426 2.93949 4.22611 3.55084C3.96781 3.51693 3.49615 3.59283 3.11793 3.68147C3.27196 4.47366 3.774 5.12621 5.13467 5.44198C4.51298 5.48218 4.19173 5.62104 3.90064 5.92034C4.18334 6.47131 4.87433 7.11972 6.11658 6.98652C4.73551 7.57098 5.55378 8.65404 6.67793 8.49244C4.76007 10.4373 1.73627 10.2945 -1.69454e-07 8.66798C4.53332 14.7327 14.3881 12.2545 15.8561 6.41302C16.9564 6.42203 17.6033 6.03881 18.0042 5.61632C17.3702 5.72204 16.4514 5.61296 15.9644 5.41372Z" transform="translate(4.79053 6.5791)" fill="white"/>
</svg>
