<svg width="40" height="40" viewBox="0 0 40 40" fill="none" xmlns="http://www.w3.org/2000/svg">
<path d="M19.8659 39.7546C30.8375 39.7546 39.7317 30.8552 39.7317 19.8773C39.7317 8.89937 30.8375 0 19.8659 0C8.89425 0 0 8.89937 0 19.8773C0 30.8552 8.89425 39.7546 19.8659 39.7546Z" transform="translate(0.197266 0.167969)" fill="#13B3CA"/>
<path d="M28.0923 -1.9964e-07C35.8496 7.76136 35.8502 20.3459 28.092 28.1082C20.3348 35.8702 7.7569 35.8702 -1.99526e-07 28.1087L28.0923 -1.9964e-07Z" transform="translate(6.0166 5.99072)" fill="#10ABB6"/>
<path d="M31.8002 12.1574L26.4316 6.7857L25.989 7.2282L19.226 0.461618L18.8754 0.812191L18.0636 9.72606e-08L17.0719 0.992259L16.2684 0.188539L14.9759 1.48147L16.5532 3.05939L10.4965 9.12021L4.59382 3.2148L3.30163 4.50739L5.00278 6.20927L3.80565 7.40684L5.75868 9.361L4.89776 10.2224L7.27702 12.6034L6.88876 12.9922L9.07264 15.1777L6.50737 17.7448L4.59633 15.8329L2.75059 17.6798L0.46043 15.3879L2.04642e-07 15.849L13.4774 29.3341C22.9295 28.6931 30.5638 21.4398 31.8002 12.1574Z" transform="translate(7.94531 10.5352)" fill="#0EA2A4"/>
<path d="M25.0633 8.66203C26.6509 8.5312 27.7274 7.80874 28.142 6.82898C27.569 7.18107 25.7913 7.56485 24.8096 7.19901C24.7616 6.96871 24.708 6.74897 24.6552 6.55163C23.9072 3.80289 21.3461 1.58924 18.6625 1.85628C18.8795 1.76872 19.1004 1.68678 19.3196 1.61373C19.6147 1.50764 21.3479 1.22525 21.0753 0.613253C20.8452 0.0750635 18.7278 1.02027 18.3291 1.14389C18.8554 0.945879 19.7257 0.605034 19.8186 8.70227e-08C19.0122 0.110456 18.2209 0.492061 17.6097 1.04694C17.8301 0.808752 17.9977 0.519068 18.0334 0.207158C15.8821 1.58169 14.6257 4.35299 13.6095 7.04151C12.8112 6.26764 12.1037 5.65791 11.4686 5.31958C9.68805 4.36372 7.55908 3.36668 4.21696 2.1255C4.11436 3.23174 4.76364 4.70323 6.63478 5.6814C6.22926 5.62713 5.48878 5.74858 4.89499 5.8904C5.13681 7.15792 5.92498 8.20201 8.06117 8.70724C7.08515 8.77156 6.5808 8.99373 6.12381 9.47263C6.56764 10.3542 7.65246 11.3916 9.60272 11.1785C7.43452 12.1137 8.71916 13.8466 10.484 13.588C7.47308 16.6998 2.72586 16.4714 -2.66034e-07 13.8689C7.11709 23.5725 22.5886 19.6074 24.8932 10.2609C26.6208 10.2753 27.6363 9.66217 28.2658 8.98619C27.2703 9.15535 25.8279 8.98082 25.0633 8.66203Z" transform="translate(6.18848 10.5269)" fill="white"/>
</svg>
