<svg xmlns="http://www.w3.org/2000/svg" width="40" height="40" fill="none">
  <path fill="#6FDA44" d="M19.997 39.97c11.044 0 19.997-8.948 19.997-19.985C39.994 8.947 31.041 0 19.997 0S0 8.947 0 19.985c0 11.037 8.953 19.984 19.997 19.984z"/>
  <path fill="#67CE3E" d="M34.143 5.883c7.81 7.804 7.81 20.458 0 28.263-7.81 7.805-20.472 7.805-28.281 0L34.143 5.883z"/>
  <path fill="#fff" d="M9.036 12.082c.466-.004.933-.011 1.4-.011.339-.003.681.007 1.02-.003.155-.008.19.046.19.2-.007 1.803-.004 3.61-.004 5.413 0 .573-.02 1.147.014 1.72.076 1.298 1.114 2.359 2.348 2.398 1.317.043 2.42-.918 2.576-2.24a4.16 4.16 0 0 0 .024-.466c0-2.269.003-4.541-.004-6.81 0-.172.042-.22.208-.215.743.01 1.487.007 2.23 0 .131 0 .19.039.228.171a23.816 23.816 0 0 0 2.455 5.546c.027.043.059.086.097.146.141-.48.297-.935.511-1.365.633-1.276 1.556-2.222 2.877-2.72 1.888-.71 4.2-.101 5.539 1.455.94 1.093 1.407 2.362 1.383 3.824-.042 2.556-1.795 4.771-4.212 5.27-1.175.243-2.326.078-3.44-.37a8.215 8.215 0 0 1-1.137-.591c-.083.233-.11.466-.156.695-.335 1.62-.667 3.244-.995 4.864-.025.122-.063.169-.187.169-.788-.008-1.58-.008-2.368 0-.128 0-.15-.03-.125-.162.39-1.878.778-3.753 1.162-5.63.138-.664.27-1.33.411-1.994.018-.075.014-.133-.03-.197a23.443 23.443 0 0 1-1.774-3.029c-.01-.021-.025-.04-.07-.104v.233c-.01.631.045 1.27-.076 1.893-.408 2.086-1.57 3.53-3.53 4.158-2.956.946-5.94-1-6.49-4.155-.03-.175-.051-.35-.075-.527v-7.566zm17.605 9.642c1.594.018 2.828-1.165 2.932-2.592.138-1.907-1.712-3.373-3.447-2.731-.74.272-1.183.86-1.498 1.574-.345.784-.4 1.648-.636 2.466-.02.068.01.096.052.132.823.685 1.743 1.122 2.597 1.15z"/>
</svg>
