<svg xmlns="http://www.w3.org/2000/svg" width="25" height="25" fill="none">
  <path fill="#6FDA44" d="M12.498 24.981c6.903 0 12.499-5.592 12.499-12.49C24.997 5.592 19.4 0 12.498 0 5.596 0 0 5.592 0 12.49c0 6.899 5.596 12.491 12.498 12.491z"/>
  <path fill="#67CE3E" d="M21.34 3.677c4.88 4.877 4.88 12.786 0 17.665-4.882 4.877-12.796 4.877-17.676 0L21.34 3.677z"/>
  <path fill="#fff" d="M5.647 7.551c.292-.002.584-.007.876-.007.211-.002.425.005.637-.002.097-.004.119.03.119.126-.004 1.127-.002 2.256-.002 3.382 0 .359-.013.717.008 1.076.048.81.696 1.474 1.468 1.498a1.564 1.564 0 0 0 1.61-1.4c.01-.096.015-.192.015-.29 0-1.419.002-2.84-.002-4.257 0-.108.025-.137.13-.135.464.007.928.005 1.393 0 .082 0 .119.025.143.108.363 1.225.879 2.379 1.534 3.465.017.027.037.054.06.092.089-.3.186-.584.32-.853.396-.798.973-1.39 1.798-1.7 1.18-.444 2.625-.063 3.462.909.587.683.88 1.476.864 2.39-.026 1.598-1.121 2.982-2.632 3.293-.735.153-1.454.05-2.15-.23a5.125 5.125 0 0 1-.71-.37c-.053.146-.07.291-.098.435-.21 1.012-.417 2.027-.623 3.04-.015.076-.038.105-.116.105a82.994 82.994 0 0 0-1.48 0c-.08 0-.093-.018-.078-.1.244-1.175.486-2.346.726-3.52.086-.415.168-.831.257-1.246.01-.047.009-.083-.02-.123-.419-.6-.782-1.234-1.108-1.893-.007-.013-.015-.025-.043-.065v.146c-.007.394.028.793-.048 1.182-.255 1.304-.98 2.207-2.206 2.6-1.848.59-3.712-.626-4.056-2.597-.02-.11-.032-.22-.048-.33V7.551zm11.004 6.027c.996.01 1.767-.729 1.832-1.62.087-1.192-1.07-2.108-2.154-1.707-.463.17-.74.537-.936.983-.216.49-.25 1.03-.398 1.541-.012.043.007.061.033.083.514.428 1.089.702 1.623.72z"/>
</svg>
