<svg xmlns="http://www.w3.org/2000/svg" width="41" height="40" fill="none">
  <path fill="#D42428" d="M20.083 39.747c11.025 0 19.963-8.898 19.963-19.873C40.046 8.897 31.108 0 20.083 0S.12 8.898.12 19.873c0 10.976 8.938 19.874 19.963 19.874z"/>
  <path fill="#CC202D" d="M34.198 5.819c7.796 7.761 7.797 20.345 0 28.107-7.796 7.76-20.437 7.761-28.234 0L34.198 5.819z"/>
  <path fill="#BA202E" d="M39.644 23.854l-9.88-9.836-11.653 1.32-7.049 10.864 13.171 13.112c7.744-1.631 13.832-7.729 15.411-15.46z"/>
  <path fill="#fff" d="M30.53 16.038a3.022 3.022 0 0 0-3.029-3.016H13.293a3.022 3.022 0 0 0-3.027 3.016v8.089a3.022 3.022 0 0 0 3.027 3.016h14.208a3.022 3.022 0 0 0 3.028-3.016v-8.089zm-12.16 7.457v-7.597l5.788 3.799-5.788 3.798z"/>
</svg>
